<svg id="Layer_1" data-name="Layer 1" xmlns="http://www.w3.org/2000/svg" xmlns:xlink="http://www.w3.org/1999/xlink" viewBox="0 0 400 300"><defs><linearGradient id="linear-gradient" x1="89.38" y1="235.28" x2="111.08" y2="217.69" gradientUnits="userSpaceOnUse"><stop offset="0" stop-opacity="0"/><stop offset="1" stop-color="#f15a24"/></linearGradient><linearGradient id="linear-gradient-2" x1="261.86" y1="244.65" x2="289.09" y2="211.09" xlink:href="#linear-gradient"/></defs><title>1</title><ellipse cx="195.48" cy="214.21" rx="129.46" ry="49.93" fill="#facb73"/><ellipse cx="198.62" cy="211.52" rx="62.74" ry="12.91" transform="translate(-28.73 31.23) rotate(-8.39)" fill="#db9f3e" opacity="0.56"/><path d="M114.12,142.78a2.5,2.5,0,0,0,2.51.72c1.34-.54,8.59-4.71,11-9.92a3.38,3.38,0,0,0-2.24-3.6"/><path d="M96.8,142.79c-.24-.46.88-11.25,10.36-18.19s21-3.16,21-3.16,2.78-8.72,4.93-7.45,3.41,11,1.64,12.26-5.43.25-5.43.25-3.16,8.59-9.6,13.39S100.34,149.49,96.8,142.79Z" fill="#2b68e0"/><path d="M103.55,127.81c-.22.19.68-3.92,4.56-6.81s14.15-4.88,15.94-4,1.87,3.89,1.87,3.89S112.64,120.27,103.55,127.81Z"/><path d="M114.73,133.65c.51,0,4.94-.35,5.17.47s-3.81,3.85-5.17,4.08S114.73,133.65,114.73,133.65Z"/><circle cx="104.5" cy="136.02" r="0.98"/><path d="M324,171a13.49,13.49,0,0,1-5.2-8.33c-.87-5.38-6.76-23.24-18-26.36s-15.09,2.25-12.83,8.33,4.34,8,1.56,10.06-5.4,1.91-2.18,6.59,15.54,10.75,22.47,10.58,10.75-.52,13.35,1.39C323.11,173.22,325,173.56,324,171Z" fill="#fdd400"/><path d="M292.23,151c-1-.24-5.56-2.68-6.43-6.32s-.75-9.92-3.79-9.28-4,16.94-1.95,17.67,3.77-3.41,5.53-2.07,6.63,5.11,6.63,5.11" fill="#fdd400"/><ellipse cx="311.21" cy="159.47" rx="1.11" ry="2.14" fill="#606060"/><path d="M305.1,153.18a15.2,15.2,0,0,0-.29-1.94q-.42-1.95-.86-3.89s.6,7.1,0,10a17.35,17.35,0,0,1-2.81,5.8c1.53-1.64,3.93-3.46,4-5.84A36.47,36.47,0,0,0,305.1,153.18Z" fill="#43c9af"/><path d="M302.22,152.23a15.2,15.2,0,0,0-.29-1.94q-.42-1.95-.86-3.89s.6,7.1,0,10a17.35,17.35,0,0,1-2.81,5.8c1.53-1.64,3.93-3.46,4-5.84A36.47,36.47,0,0,0,302.22,152.23Z" fill="#43c9af"/><path d="M298.61,150.66a15.2,15.2,0,0,0-.29-1.94q-.42-1.95-.86-3.89s.6,7.1,0,10a17.35,17.35,0,0,1-2.81,5.8c1.53-1.64,3.93-3.46,4-5.84A36.47,36.47,0,0,0,298.61,150.66Z" fill="#43c9af"/><path d="M180.28,130.86s-12.45,19.26-18.14,24.75c-5.34,5.14-16.11,11.5-22.28,15-2.29,1.28,2.28,7.19,5.78,6.55s21.53-6.45,27.1-11.55,22.82-30,22.82-30Z" fill="#68e1fd"/><polygon points="280.69 92.7 314.17 85.72 315.06 84.05 310.64 83.02 280.78 90.31 280.69 92.7" fill="#fdd400"/><path d="M279.4,85.93s4-4.23,6.39-6.44,17.33-10.73,17.33-10.73A4.15,4.15,0,0,0,306.32,73c3.57,1.11,4.1,3.14,4.11,4.36s1.25,2.69,3.24,3.49,1.39,3.17,1.39,3.17L283,91.48Z" fill="#fdd400"/><polygon points="269.85 66.34 296.04 44.36 296.04 42.47 291.66 43.65 268.8 64.2 269.85 66.34" fill="#fdd400"/><path d="M265.51,61s1.51-5.62,2.58-8.7,10.19-17.65,10.19-17.65a4.15,4.15,0,0,0,4.86,2.25c3.67-.71,5.09.83,5.69,1.9s2.37,1.78,4.5,1.54S296,42.47,296,42.47L271.26,64.2Z" fill="#fdd400"/><path d="M187.29,122.87c1,.16,32.07-17.87,37.76-19.16S238.92,99.92,240,98.5s3-10,8.71-16.89,15.46-21.33,17.77-21,5.33,1.42,4.8,3.55-6.4,6.4-7.29,9.42-9.06,24.53-11.55,27.73-10.66,9.42-10.66,9.42,13.86-8.89,16.89-11.55,11.55-7.46,14.4-8.89,8.89-6.75,10.66-6.4,5.15,2.13,3.73,4.8S272.86,103.48,269,107s-16.71,19.91-24.71,25.06-24.84,12.26-24.84,12.26l-21.55-1.24" fill="#68e1fd"/><path d="M193.32,126.61s-1.19-5,3.82-9.3,27.2-13.6,27.91-13.6,8.35,1,7.16,11.45l-26,14.31s-7.16,2.62-11.69,0" fill="#ed1e79"/><path d="M216.6,107.15s8.37,4.44,6.4,13.07l3.79-2.09s2-9.15-7-13Z" fill="#53524d"/><path d="M201.69,114.32s8.94,4.74,6.84,14l4-2.23s2.1-9.77-7.52-13.89Z" fill="#53524d"/><path d="M185.27,186.46,180,189.71s-6.51,1.26-6.17,2.4,3.31.57,4.68.69-6.85,4.8-5.71,6.51,5-1.71,5-1.71-4,3.43-3.2,4.45,5.25-3.08,5.25-3.08-3.08,3.54-1.94,4.11,4.45-4.91,5-4.91-2.17,3.88-.57,3.54S191,191,191,191Z" fill="#ffdd92"/><path d="M191.42,148.79s8.86,1.72,9.36,3,.49,21.67-2.71,23.88-12.8,10.83-12.8,10.83S188,191.21,191,191s19.53-10.35,21-15.52,12.17-36.75,2.57-39a16.16,16.16,0,0,0-15.51,4.92Z" fill="#68e1fd"/><path d="M170.74,136s-.36,17.13,5.85,18.13,11,2.63,14.83-5.39S178.51,131.34,170.74,136Z" fill="#ffdd92"/><path d="M189.7,152.23s11.57-5.17,11.08-14.28-5.66-14.77-15.51-15.27S170.5,135.38,170.74,136s12.56,1.9,15,4.61S189.7,152.23,189.7,152.23Z" fill="#68e1fd"/><path d="M141.69,170l-6.8,1.08s-7.24-1.52-7.38-.2,3.16,2,4.52,2.73-9.13,2-8.69,4.23,5.91.41,5.91.41-5.6,1.8-5.22,3.2,6.74-.9,6.74-.9-4.7,2.31-3.78,3.39,6.71-3.13,7.3-2.88-3.91,3.06-2.12,3.4,13.46-7.35,13.46-7.35Z" fill="#ffdd92"/><path d="M159.15,73.32a2.5,2.5,0,0,0,2.51.72c1.34-.54,8.59-4.71,11-9.92a3.38,3.38,0,0,0-2.24-3.6" fill="#b31327"/><path d="M142.69,73.34c-.24-.46.88-11.25,10.36-18.19S174,52,174,52s2.78-8.72,4.93-7.45,3.41,11,1.64,12.26-5.43.25-5.43.25-3.16,8.59-9.6,13.39S146.23,80,142.69,73.34Z" fill="#ed4049"/><path d="M148.55,59.36c-.22.19.71-4.93,4.59-7.82s14.15-4.88,15.94-4S171,51.45,171,51.45,157.64,51.82,148.55,59.36Z" fill="#b31327"/><path d="M159.76,64.19c.51,0,4.94-.35,5.17.47s-3.81,3.85-5.17,4.08S159.76,64.19,159.76,64.19Z" fill="#b31327"/><circle cx="149.53" cy="66.57" r="0.98" fill="#b31327"/><circle cx="171.29" cy="110.17" r="3.69" fill="#8fc0fb"/><circle cx="189.35" cy="96.57" r="9.97" fill="#8fc0fb"/><path d="M193.08,89.62a1.55,1.55,0,0,0-2.05.54,1.51,1.51,0,0,0,.54,2.05,3.53,3.53,0,0,1,2.3,3.2c0,1.93,3,1.93,3,0A6.44,6.44,0,0,0,193.08,89.62Z" fill="#fff"/><path d="M194.69,98.24a1.5,1.5,0,0,0,0,3A1.5,1.5,0,0,0,194.69,98.24Z" fill="#fff"/><path d="M172.32,107.73a.5.5,0,0,0-.27,1,.92.92,0,0,1,.68.88.5.5,0,0,0,1,0A1.94,1.94,0,0,0,172.32,107.73Z" fill="#fff"/><path d="M171.29,140.75a16.7,16.7,0,0,0,6.75,1.73c3.44,0,8.06-1.88,9.25,0s1.84,4.7,0,5.74-7.79,1.57-10.71.94-5.71-2-5.84-3.07S168.5,141.42,171.29,140.75Z"/><path d="M187.89,143.63c0,.07,9.9-6.38,10.72-13l.7,3s-4,10.67-12,11.52"/><path d="M170.88,142.06a16.7,16.7,0,0,0,6.75,1.73c3.44,0,8.06-1.88,9.25,0s1.84,4.7,0,5.74-7.79,1.57-10.71.94-5.71-2-5.84-3.07S168.09,142.73,170.88,142.06Z" fill="#68e1fd"/><path d="M91.35,243.41,112.94,231l-20.13-8.48-18,9.74C78.48,237.75,84.94,240.87,91.35,243.41Z" fill="url(#linear-gradient)"/><polyline points="267.44 225.81 240.23 245.24 265.5 253.95 291.37 234.35" fill="url(#linear-gradient-2)"/><path d="M102.08,189.48c.3-.09.58-.19.9-.25a1.67,1.67,0,0,0,1.33-1.09c1.68-1.31-.23-4.28-2.4-3.22a15.9,15.9,0,0,0-1.52.86,12.56,12.56,0,0,0-2,.85A15,15,0,0,0,99,181c-.12-2.07-.09-5.67-2.29-6.79-2.67-1.36-4,1.36-4.49,3.45-.84,3.39-1.55,6.81-2.3,10.22a15.87,15.87,0,0,1-1.37-2.41c-.9-2-1.13-4.23-2.14-6.17-1.28-2.45-4.56-4.76-7.36-3.11s-.4,5.16.59,7.16a18.92,18.92,0,0,0,3.51,5.05c1.41,1.4,3.4,2.46,4,4.46a2,2,0,0,0,.48.82c.27,1.41.51,2.82.73,4.24a3.48,3.48,0,0,0-3.3-.87,1.88,1.88,0,0,0-2.07.4c-1.6,1.5-.87,3.59.35,5.07,1.69,2,3.51,4,5.26,6a1.68,1.68,0,0,0,.86.53c0,.68.07,1.37.09,2.05a2,2,0,0,0-.24,1q0,6.94,0,13.87a1.8,1.8,0,0,0,0,.23,2.07,2.07,0,0,0,1.43,2.25,5.83,5.83,0,0,0,5.45-.72,1.37,1.37,0,0,0,1.61-.68c.8-1.76.31-4.37.27-6.27-.06-3.1-.24-6.19-.49-9.28,0,0,0-.07,0-.1a27.3,27.3,0,0,0,2-2.49,35.48,35.48,0,0,0,3.84-6.47,2.14,2.14,0,0,0,.18-.67c.16-.23.33-.45.49-.67,1.46-2.12-2-4.13-3.45-2s-3,4.1-4.58,6.07a42.18,42.18,0,0,1,3.63-13.43A12.67,12.67,0,0,1,102.08,189.48Z" fill="#ed4049"/><path d="M113.56,217.28a4.64,4.64,0,0,0-1.54.42c.21-1.74.45-3.48.74-5.21.42-2.52-3.43-3.6-3.86-1.06q-.38,2.28-.68,4.57a2,2,0,0,0-3.23,2l2,10.78a2,2,0,0,0,.23.64,1.75,1.75,0,0,0,1.38,1.77,2.73,2.73,0,0,0,1.2.72,1.35,1.35,0,0,0,1.39-.34,1.22,1.22,0,0,0,1.09-1.06c.42-2,.81-4.09,1.2-6.14l1.85-4.1C115.85,219.05,115.23,217.13,113.56,217.28Z" fill="#ed4049"/><path d="M277.4,232s-5.74-3.76-3.24-11.67S280.78,209,277.4,203s-4.1-4.8-1.3-12.56S279.94,171,279.94,171s5,9.41,4.23,15.81-5.15,7.33-1.64,11.95,7.2,6.31,4.23,11.86-5.12,7.06-4.23,11.95a28.56,28.56,0,0,1,0,9.41Z" fill="#71890d"/><path d="M286.76,234.35s-3.6-7.15.2-13.55,5.21-5.27,5.26-12,.61-16.43.61-16.43a110.44,110.44,0,0,1,3,13c.6,4.89,3.54,7.93,0,11.87s-5,6.57-4.44,10a28.53,28.53,0,0,1,0,7.15Z" fill="#71890d"/><path d="M268.82,231.61S266,226,269,221s4.08-4.12,4.12-9.42.47-12.85.47-12.85a86.42,86.42,0,0,1,2.33,10.2c.47,3.83,2.77,6.21,0,9.29s-3.88,5.14-3.47,7.79a22.32,22.32,0,0,1,0,5.6Z" fill="#8fb836"/><path d="M257.83,234.35S256.76,221.79,269,221s13.17,14.72,13.17,14.72S267.36,240.35,257.83,234.35Z" fill="#bf7925"/></svg>