<svg id="Layer_1" data-name="Layer 1" xmlns="http://www.w3.org/2000/svg" viewBox="0 0 400 300"><title>#105_fast working_twocolour</title><path d="M70.81,191.51S64.44,128.63,88,95.34c21.55-30.51,79.86-60.83,172.58-42s64.74,138.51,64.74,138.51Z" fill="#e6e6e6" opacity="0.4"/><rect x="242.4" y="79.27" width="23.32" height="32.14" transform="translate(23.29 -47.42) rotate(11.17)" fill="#e6e6e6" opacity="0.75"/><path d="M153.33,191.6S111,103.33,154,85.33s134.11-29.59,84,106Z" fill="#24285b"/><rect x="61.43" y="198" width="277.98" height="65.86" fill="#c9c9c9"/><rect x="61.43" y="191.51" width="277.98" height="11.88" fill="#e6e6e6"/><path d="M292.85,191.62s6.28,51.89-38.79,72.24H339.4V191.51Z" opacity="0.08"/><path d="M93.06,175.27h5.27a6.41,6.41,0,0,1,6.4,6.4h0a6.41,6.41,0,0,1-6.4,6.41H93.06" fill="none" stroke="#ffd200" stroke-miterlimit="10" stroke-width="2"/><rect x="82.21" y="171.96" width="15.12" height="19.4" fill="#24285b"/><circle cx="90.05" cy="181.09" r="4.66" fill="#fff" opacity="0.13"/><path d="M97.33,172s2.94-9.06-4.27-12.45-12.71-3.26-10.85-16.8S81,121.13,66,118.48s-32,9.69-20.14,22.18,26.2,5.88,24,18.85S82.21,172,82.21,172Z" fill="#a5a5a5" opacity="0.2"/><path d="M225.79,103.5s31.54,6,50.54-.77,6.37-31.24-12.64-44.15L272,51.66s51,33.59,23.33,71.3S199.91,153.67,225.79,103.5Z" fill="#68e1fd"/><path d="M225.79,103.5s31.54,6,50.54-.77,6.37-31.24-12.64-44.15L272,51.66s51,33.59,23.33,71.3S199.91,153.67,225.79,103.5Z" fill="#fff" opacity="0.46"/><path d="M191.54,104.25s-56.87-.92-51.54,29.41,19,58.2,19,58.2l79-.51S289.33,85.33,191.54,104.25Z" fill="#68e1fd"/><path d="M192.84,112.26s-3.66,8,1.32,10,6-1.22,6-1.22,4,3.56,6.62,0,1.32-9.75-2.21-12.19S192.84,112.26,192.84,112.26Z" fill="#fff"/><path d="M200.18,121.08s1.57,9.5,11.07,4.75,6.34-23.36,6.34-23.36a69.15,69.15,0,0,0-7.6-.19C207,102.46,197.11,116.64,200.18,121.08Z" opacity="0.08"/><path d="M193.94,112.35a37.94,37.94,0,0,1,1,4.05c.32,1.88,1.33,4.6,4.38,4.73,4.72.21,4.92-7.23,4.92-7.23s1.93-7.22-3.17-7.46C196.46,106.23,192.15,106.22,193.94,112.35Z" fill="#f4a28c"/><path d="M204,114.23s0-2.24,1.89-2.42S207.63,115.86,204,114.23Z" fill="#f4a28c"/><path d="M195.33,114.19s.38-2.21-1.51-2.67S191.48,115.27,195.33,114.19Z" fill="#f4a28c"/><path d="M170.2,123.8s8.86,18.86,0,35.86S228.67,164,228.67,164l-5,27.66-54.28.66-23.46-18.68-4.6-31Z" opacity="0.08"/><path d="M193.94,112.35s-7.6,0-5-6,3.88-1.94,4.85-6.41,2.28-5.48,4.84-4,.86,5.6,4.2,4,5.57-2.89,6.64-.09.62,4.27-1.5,5.58,2,4.69-3.45,7.07-9.23-3.37-9.23-3.37Z" fill="#ffd200"/><circle cx="203.93" cy="174.45" r="4.12" fill="#fff"/><path d="M168.75,120.76a16,16,0,0,0-22-5.49c-14.76,8.79-37.69,26.87-31.47,51.9,9,36.22,82.84,22.66,82.84,22.66l-1.5-6.25s-54.09-7-47.84-24C154,145.4,178.7,137.91,168.75,120.76Z" fill="#68e1fd"/><path d="M168.75,120.76a16,16,0,0,0-22-5.49c-14.76,8.79-37.69,26.87-31.47,51.9,9,36.22,82.84,22.66,82.84,22.66l-1.5-6.25s-54.09-7-47.84-24C154,145.4,178.7,137.91,168.75,120.76Z" fill="#fff" opacity="0.46"/><polygon points="178.44 184.32 168.86 151.16 222.25 148.23 215.56 184.93 215.2 192.14 180.01 192.12 178.44 184.32" fill="#ffd200"/><circle cx="196.9" cy="165.58" r="4.64" fill="#fff"/><rect x="232.02" y="30.13" width="35.03" height="24.25" transform="translate(49.14 -112.33) rotate(28.04)" fill="#c9c9c9"/><path d="M219.71,162.17s-9,25.47-40.91,23.93l1.21,6,35.19,0,.36-7.21Z" opacity="0.08"/><path d="M265.79,56.83s-9.54-5-8.29-8.75,8-3.83,14.5,3.58Z" fill="#f4a28c"/><rect x="113.82" y="160" width="46.83" height="31.93" fill="#fff"/><polygon points="144.93 160 142.03 192.14 160.66 191.93 160.66 160 144.93 160" opacity="0.08"/><rect x="264.69" y="152.65" width="46.83" height="39.23" fill="#fff"/><polygon points="295.8 152.65 292.9 192.14 311.53 191.88 311.53 152.65 295.8 152.65" opacity="0.08"/><rect x="305.41" y="29.87" width="22.81" height="31.43" transform="translate(9.14 133.82) rotate(-24.19)" fill="#e6e6e6" opacity="0.43"/><rect x="70.68" y="70.66" width="51.89" height="36.63" fill="#ffd200"/><polygon points="90.25 91.28 97.51 77.45 95.99 87.36 103 87.36 97.21 99.26 97.21 91.28 90.25 91.28" fill="#fff"/></svg>