<svg id="Layer_1" data-name="Layer 1" xmlns="http://www.w3.org/2000/svg" xmlns:xlink="http://www.w3.org/1999/xlink" viewBox="0 0 400 300"><defs><linearGradient id="linear-gradient" x1="161.97" y1="199.1" x2="175.12" y2="188.43" gradientUnits="userSpaceOnUse"><stop offset="0" stop-opacity="0.03"/><stop offset="0.97" stop-color="#7f4a00"/></linearGradient><linearGradient id="linear-gradient-2" x1="187.83" y1="263.67" x2="200.98" y2="253" xlink:href="#linear-gradient"/><linearGradient id="linear-gradient-3" x1="264.07" y1="215.7" x2="277.24" y2="205.02" xlink:href="#linear-gradient"/><linearGradient id="linear-gradient-4" x1="104.68" y1="219.85" x2="123.24" y2="204.79" xlink:href="#linear-gradient"/></defs><title>81-90</title><path d="M34.33,189.16l159.09,92.62a4.49,4.49,0,0,0,4.51,0L351.55,193.1a4.49,4.49,0,0,0,0-7.78L190.11,92.1a4.49,4.49,0,0,0-4.53,0L34.31,181.41A4.49,4.49,0,0,0,34.33,189.16Z" fill="#f3ad00"/><path d="M169.52,171.19c-6-4.11,13.56,9.34,8.27,4.27l-36.42,19.77,23.55,13.21,43.62-23.59C206.13,182.94,172,172.89,169.52,171.19Z" opacity="0.32" fill="url(#linear-gradient)"/><path d="M195.38,235.76c-6-4.11,13.56,9.34,8.27,4.27l-36.42,19.77L190.79,273l43.62-23.59C232,247.5,197.88,237.46,195.38,235.76Z" opacity="0.32" fill="url(#linear-gradient-2)"/><path d="M302.17,195.38c-10.58,3.76-27.83,6.93-38.82,9.25a.81.81,0,0,1-.33.25,10.5,10.5,0,0,1-9.15,0l-11.13,6,23.55,13.21,43.62-23.59C308.93,199.81,309.28,197.72,302.17,195.38Z" opacity="0.32" fill="url(#linear-gradient-3)"/><path d="M133.4,192.83c-6-4.11-12.23-8-17.52-13.06L70,207.51l49.57,27.57,54.37-31C171.55,202.18,135.9,194.53,133.4,192.83Z" opacity="0.32" fill="url(#linear-gradient-4)"/><path d="M198.17,190.2V159l27.92-15.59v30.94Z" fill="#c96336"/><path d="M198.17,159,171,143.42s-.75,31.44,0,31.94,27.16,14.84,27.16,14.84Z" fill="#c96336"/><polygon points="171 143.41 198.17 126.81 226.09 143.41 198.17 159.01 171 143.41" fill="#c96336"/><polygon points="181.35 137.09 209.63 152.61 209.63 168.88 217.76 164.78 217.76 148.06 189.49 132.12 181.35 137.09" fill="#fdedcb"/><path d="M309.9,200.24V146.91H298.29V200.7C302.3,201.87,306.53,202,309.9,200.24Z" fill="#a83f1e"/><path d="M305.27,147.06v54.62a11.69,11.69,0,0,0,4.63-1.29V147.06Z" fill="#7f2b14"/><path d="M320.25,151.9c7.22-.35,16.47-2.94,13.76-11-1.6-4.76-6.52-8.95-9.66-12.72s-2.45-6.3-6-10c3,.13,7.33-.44,8.07-3.4.64-2.6-13.31-18.51-19.35-25a3.86,3.86,0,0,0-5.24-.38c-7.19,5.72-25.55,21-23,25.35,1.55,2.65,4.67,3.57,7.47,3.81-6.61,6.62-14.13,14.9-14.9,23.72-.66,7.65,7.16,8.67,14.45,8.28-5,6.12-18.71,23.57-15.59,28.87,1.65,2.79,7,3.72,10.09,4.34a100.23,100.23,0,0,0,20.68,2c6.9-.08,14-.77,20.57-3.1,3.48-1.24,7.29-2.94,10-5.52,3.21-3,1.42-6.23-.67-9.26C327.36,162.63,323.81,157.26,320.25,151.9Z" fill="#52af45"/><path d="M318.38,118.21s-8.79-.57-14.91-.41l31,25.49s.83-3-4.65-9S318.38,118.21,318.38,118.21Z" fill="#0d5b23"/><path d="M320.25,151.9h-18l29.46,25.3s3.25-2.38,1.29-5.82S320.25,151.9,320.25,151.9Z" fill="#0d5b23"/><path d="M273.45,219.57V186h-7.31v33.87A9.78,9.78,0,0,0,273.45,219.57Z" fill="#a83f1e"/><path d="M270.53,186.08v34.39a7.36,7.36,0,0,0,2.91-.81V186.08Z" fill="#7f2b14"/><path d="M280,189.13c4.55-.22,10.37-1.85,8.66-6.92-1-3-4.1-5.63-6.09-8s-1.54-4-3.75-6.29c1.88.08,4.62-.28,5.08-2.14.41-1.64-8.38-11.66-12.18-15.72a2.43,2.43,0,0,0-3.3-.24c-4.53,3.6-16.09,13.2-14.48,16,1,1.67,2.94,2.25,4.7,2.4-4.16,4.17-8.9,9.38-9.38,14.93-.42,4.82,4.51,5.46,9.1,5.21-3.17,3.85-11.78,14.84-9.82,18.18,1,1.76,4.38,2.34,6.35,2.73a63.11,63.11,0,0,0,13,1.26,40.11,40.11,0,0,0,12.95-2,18.14,18.14,0,0,0,6.32-3.47c2-1.9.89-3.92-.42-5.83C284.44,195.89,282.21,192.51,280,189.13Z" fill="#67c65c"/><path d="M278.79,167.92s-5.53-.36-9.39-.26l19.52,16.05s.52-1.86-2.93-5.69A78.56,78.56,0,0,1,278.79,167.92Z" fill="#0d5b23"/><path d="M280,189.13H268.61l18.55,15.93a2.82,2.82,0,0,0,.82-3.66C286.74,199.23,280,189.13,280,189.13Z" fill="#0d5b23"/><path d="M213.33,260.33V238.71L194,227.9v21.45Z" fill="#c96336"/><path d="M213.33,238.71l18.83-10.81s.52,21.8,0,22.14-18.83,10.29-18.83,10.29Z" fill="#e27144"/><polygon points="232.17 227.9 213.33 216.39 193.98 227.9 213.33 238.71 232.17 227.9" fill="#9b4726"/><polygon points="193.98 227.9 186.98 215.77 206.81 204.11 213.33 216.39 193.98 227.9" fill="#e27144"/><polygon points="232.17 227.9 237.27 216.99 216.44 228.34 213.33 238.71 232.17 227.9" fill="#c96336"/><path d="M175.34,154.52s-4-4.67-6.83-3.5-6,12-6,12l5.83,2.13s.66-7.8,2.33-7.8,4.67,3,4.67,3l-2,3.33L179.5,162v-7.5l-1.67,2.83Z" fill="#fdedcb"/><path d="M178.14,165.27s2.61,3.12,1.94,5.3-4.19,2.31-4.19,2.31l-.49-3.56-3,4.67,4.34,5.9v-3.15s5.31-1.06,6-3.61.16-9.61.16-9.61Z" fill="#fdedcb"/><path d="M164.66,168.06s-6.14,5.67-5.68,5.32h3.08s-2,7.18,1.57,8.82c2.29,1,7.73-2.14,7.72-2.48s-.67-6-.67-6-3.61,4.05-5,3.6-.55-4-.55-4l3.22-.52Z" fill="#fdedcb"/><path d="M165.82,39.38S162.3,55,161.63,56.81s-6.23,10.95-6.23,10.95-5.21,2.84-4,3.47a3.13,3.13,0,0,0,2.54,0s-1.52,5.88-.76,7.25,3.55,2.06,5.69,1.15,2.12-7.43,2.47-8.39,11.34-19.87,12.44-31.84S165.82,39.38,165.82,39.38Z" fill="#ffc6b2"/><path d="M164.79,31.72s-3.41,3.87-3.46,17c0,0,9.85,4.36,11.88,2.18l2.45-12.36" fill="#68e1fd"/><path d="M189,85.51s2.14,17.55,3.35,22,2.29,32.68,2.29,32.68,3.77,2.69,7,0c0,0,1.7-22.84.81-28.94s0-30.14,0-30.14" fill="#ffc6b2"/><path d="M176.61,80.44s-.43,12.94,0,17.21S178.89,129,178.89,129a4.8,4.8,0,0,0,6.26,0S187.21,115.58,187,113s-.68-34.85-.68-34.85" fill="#ffc6b2"/><path d="M171.22,17.85c0,.07,20.83,3.29,19.66,10.09s-10.15,4.45-10.15,4.45L170.31,20.05" fill="#f18f22"/><path d="M189,150.3a3.67,3.67,0,0,0,.7,4.07c1.8,1.92,4.16,1,6.15,0s7.63-6,6.85-7.31-1.07-6.83-1.07-6.83" fill="#fff"/><path d="M194.52,138s-.91,5.2-2.2,6.89-4.34,5.82-3.35,6.89,1.73-2.14,3.35-1.22,1.11,3.22,2.29,2.76,6.69-4.84,7.3-7.62-.77-7.68-.77-7.68" fill="#68e1fd"/><path d="M169.22,136.54s-.22,3.1,2.59,3.69,6.3-1.12,7.87-1.84,7.31-5.55,7.31-5.55l-.68-6.75" fill="#fff"/><path d="M178.66,125.61s-1.68,4.18-4.72,5.75-5.4,4.61-4.72,5.17,2.14-1.46,2.92-.9.78,3,1.74,2.41,3,1,5.79-.95,1.91-2.7,4.27-3.6,2.36-7.42,2.36-7.42S180.34,127.4,178.66,125.61Z" fill="#68e1fd"/><path d="M176.08,56.93a47.64,47.64,0,0,0-2.41,13c-.44,7.84,2.75,53.71,2.75,53.71a24.49,24.49,0,0,0,14.62.77v10.48s8.07,2.62,16.89-3c0,0-1-69.61-15.29-83.21" fill="#f15a24"/><path d="M188.62,53a25.12,25.12,0,0,0,4-4.34,97.32,97.32,0,0,0-5.45-11.55c-3.11-5.07-6.23-10.86-12.39-12.35a41,41,0,0,0-7.09,4,10.09,10.09,0,0,0-2.92,2.91c-.12,5,.3,8.16,3.26,11.89S173,53.46,175,56.75C179.43,57.82,184.35,55.89,188.62,53Z" fill="#68e1fd"/><path d="M170.55,22.9l2.66,3.31s-1.44,3.08-4.23,3.45l-1.74-2" fill="#ffb39c"/><path d="M164.65,25.28c-5.11,4.26-7.6-.5-7.6-.5-7-8.76,4.16-13.51,4.16-13.51s8.69-3.16,10.13,9.23" fill="#f18f22"/><path d="M155.87,20.81s7.94,11.26,12.34,7.62,1.55-7.4,1.55-7.4-4-7.63-8.84-6.42S155.87,20.81,155.87,20.81Z" fill="#ffc6b2"/><path d="M155.87,20.81s5.44,2.31,8.65-.22,6,2.31,6,2.31a7.51,7.51,0,0,0-.67-8.06c-1.69-2.5-7.93-4.37-11.09-2S153.59,19,155.87,20.81Z" fill="#f18f22"/><path d="M187.47,73.23c-.07-.63-1.07-.64-1,0q2.8,26.36,4.41,52.82c0,.64,1,.64,1,0Q190.27,99.59,187.47,73.23Z" fill="#842e13"/><path d="M188.53,120.8v68.28a11.32,11.32,0,0,1-5.6,9.77l-34.07,20a12.07,12.07,0,0,1-12.33-.08L99.09,196.93v-80.2" fill="#68e1fd"/><path d="M147.57,118.88V219.39a12,12,0,0,0,1.28-.64l34.07-20a11.32,11.32,0,0,0,5.6-9.77V120.74Z" fill="#fff" opacity="0.17"/><path d="M99.09,120v6.77l41.75,22.49a10.21,10.21,0,0,0,10.84,0c5.95-3.5,36.85-22.49,36.85-22.49v-6" opacity="0.36"/><path d="M95.35,117.92l47,26.28a9,9,0,0,0,9-.14l41-24.58a6.12,6.12,0,0,0-.13-10.57L151.07,85.63a11.16,11.16,0,0,0-11.19.11l-44.6,26.43A3.32,3.32,0,0,0,95.35,117.92Z" fill="#68e1fd"/><polygon points="93.65 114.76 93.66 108.99 96.36 112.52 93.65 114.76" fill="#68e1fd"/><polygon points="195.22 108.34 195.22 114.39 192.81 112.41 195.22 108.34" fill="#68e1fd"/><g opacity="0.08"><path d="M95.35,117.92l47,26.28a9,9,0,0,0,9-.14l41-24.58a6.12,6.12,0,0,0-.13-10.57L151.07,85.63a11.16,11.16,0,0,0-11.19.11l-44.6,26.43A3.32,3.32,0,0,0,95.35,117.92Z"/><polygon points="93.65 114.76 93.66 108.99 96.36 112.52 93.65 114.76"/><polygon points="195.22 108.34 195.22 114.39 192.81 112.41 195.22 108.34"/></g><path d="M95.35,111.95l47,26.28a9,9,0,0,0,9-.14l41-24.58a6.12,6.12,0,0,0-.13-10.57L151.07,79.66a11.16,11.16,0,0,0-11.19.11L95.28,106.2A3.32,3.32,0,0,0,95.35,111.95Z" fill="#68e1fd"/><path d="M104,110.71l38.66,21.63a7.38,7.38,0,0,0,7.41-.11L183.8,112a5,5,0,0,0-.11-8.7L149.9,84.13a9.19,9.19,0,0,0-9.21.09L104,106A2.73,2.73,0,0,0,104,110.71Z" opacity="0.37"/><path d="M95.28,106.2,82.93,54.92a6.59,6.59,0,0,1,3.3-7.36l37.88-20.23a4.2,4.2,0,0,1,6.05,2.7l12,48.72Z" fill="#68e1fd"/><path d="M95.28,106.2,82.93,54.92a6.59,6.59,0,0,1,3.3-7.36l37.88-20.23a4.2,4.2,0,0,1,6.05,2.7l12,48.72Z" opacity="0.08"/><path d="M145.77,83a9.16,9.16,0,0,0-5.09,1.26L104,106a2.73,2.73,0,0,0,.06,4.73l38.66,21.63a7.36,7.36,0,0,0,3.09.91Z" opacity="0.37"/><ellipse cx="101.12" cy="196.85" rx="8.64" ry="10.99" transform="translate(-67.88 53.98) rotate(-22.6)" fill="#af4e28"/><polyline points="92.59 188.4 97.72 186.41 97.99 189.42" fill="#af4e28"/><polygon points="101.04 208.69 105.35 206.99 102.07 206.5 101.04 208.69" fill="#915200"/><ellipse cx="97.05" cy="198.54" rx="8.64" ry="10.99" transform="translate(-68.85 52.54) rotate(-22.6)" fill="#c96336"/><ellipse cx="96.92" cy="198.23" rx="6.31" ry="8.02" transform="translate(-68.74 52.47) rotate(-22.6)" fill="#fff"/><path d="M144,42s-1.25,3.68,2.29,5.1c.48.19.12,1.93.09,2.25a75.24,75.24,0,0,1-2.61,12.84c-1.11,4-2.61,8.12-2.36,12.26.19,3.23.52,6.45.89,9.66.71,6.25,1.58,12.48,2.53,18.69q.33,2.2.69,4.39s1.84,4.9,12.89,4,12-8.34,12-8.34c-.37-3.5-.78-7-1.22-10.49-.8-6.37-1.66-12.75-2.86-19.06-.55-2.89-.34-3-1.57-5.75a21.35,21.35,0,0,0-1.56-3.1c-1-1.92-5.47-11.3-6-13.37-.45-1.91-.88-3.82-1.26-5.74,0,0,2.7-1.85.31-5.08" fill="#67c65c"/><ellipse cx="150.12" cy="41.15" rx="6.18" ry="2.55" transform="translate(-4.28 21.36) rotate(-8.03)" fill="#67412e"/><path d="M144.57,75.16,146.7,90.3c.33,2.37,4.79,1.74,4.46-.63L149,74.53C148.69,72.16,144.23,72.78,144.57,75.16Z" fill="#fefefe"/><path d="M149.68,93.23c-2.87.4-2.35,4.09.52,3.68S152.55,92.82,149.68,93.23Z" fill="#fefefe"/><path d="M175.19,40.91s-3.52,15.6-4.18,17.43-6.23,10.95-6.23,10.95-5.21,2.84-4,3.47a3.13,3.13,0,0,0,2.54,0s-1.52,5.88-.76,7.25,3.55,2.06,5.69,1.15,2.12-7.43,2.47-8.39S182,52.88,183.11,40.91,175.19,40.91,175.19,40.91Z" fill="#ffc6b2"/><path d="M173.28,33.91s-1.53-9.33,4.29-9.15,7.73,5.94,8.68,9.15S183,49.78,183,49.78l-11.74-4.94Z" fill="#68e1fd"/><path d="M177.75,57l2.87-8.26,2.37,1,2.76-10V54.74S181.35,58.32,177.75,57Z" opacity="0.37"/><path d="M172.74,49.34a103.1,103.1,0,0,1-2.56-11.16c-.11-.63-1.07-.36-1,.27a103.09,103.09,0,0,0,2.56,11.16A.5.5,0,0,0,172.74,49.34Z" fill="#328896"/></svg>