<svg id="Layer_1" data-name="Layer 1" xmlns="http://www.w3.org/2000/svg" viewBox="0 0 400 300"><title>#115_team meeting_twocolour</title><path d="M231.41,91.54s48.83,21,42.8,70.45-48,44.48-48,44.48Z" fill="#68e1fd"/><path d="M231.41,91.54s48.83,21,42.8,70.45-48,44.48-48,44.48Z" opacity="0.08"/><path d="M200.69,65.43s.68,5.5-.12,9.2a2.79,2.79,0,0,1-3.33,2.12,6.15,6.15,0,0,1-5-4.45l-1.83-4.78a5,5,0,0,1,2-5.38C195.5,59.78,200.45,62.06,200.69,65.43Z" fill="#f4a28c"/><polygon points="190.6 70.37 190.31 88.52 200.32 87.96 196.51 74.98 190.6 70.37" fill="#f4a28c"/><path d="M189.89,71.84h0a.52.52,0,0,0,.42.49,3.67,3.67,0,0,0,4.08-1.77,4.59,4.59,0,0,0-.18-5.06,22.59,22.59,0,0,0,5.12.21,5.37,5.37,0,0,0,1.67-.4l1.28-4.21s2.13-4.23-.35-5-3.54,2-5.58,0-2.52-2.69-4.54-1.54.35,2.72-3,2.8-3.4,1.46-3.38,3a2.57,2.57,0,0,0,.68,1.39A17,17,0,0,1,189.89,71.84Z" fill="#24285b"/><path d="M200.94,68.91,202.55,71a.89.89,0,0,1-.5,1.41l-2.1.47Z" fill="#f4a28c"/><path d="M197,76.72s-1.29.08-4-1.41c0,0,.51,3.59,5.14,5.22Z" fill="#ce8172" opacity="0.31"/><path d="M171.09,90.39s65.19-12.47,75,14.29c9,24.48-9.27,85.77-9.27,85.77l-57.06,3.82S117.49,105.46,171.09,90.39Z" fill="#68e1fd"/><polygon points="236.82 190.45 245.48 210.31 173.32 209.69 179.76 194.27 236.82 190.45" fill="#24285b"/><path d="M178.65,103.59s17.67,7.46,10,32.29-8.47,39.86,4.35,34.65c0,0,19.64-27.6,24.17-45.84l1.54-8,20.53,4.42-8.58,38-13.19-.61-10.7,33.89-27,1.81-22.69-23.44,3.07-24.15Z" opacity="0.08"/><path d="M176,100.9a17.3,17.3,0,0,0-24.52,3.76c-8.3,11.5-17.79,34.37-4.39,71.39,14.85,41,45,21.86,62-23.1l-5.52-5S180,185.31,171.09,167.57C163.53,152.6,194.41,115.3,176,100.9Z" fill="#68e1fd"/><rect x="199.88" y="108.84" width="29.87" height="38.67" transform="translate(32.17 -42.75) rotate(12.28)" fill="#24285b"/><path d="M176,100.9a17.3,17.3,0,0,0-24.52,3.76c-8.3,11.5-17.79,34.37-4.39,71.39,14.85,41,45,21.86,62-23.1l-5.52-5S180,185.31,171.09,167.57C163.53,152.6,194.41,115.3,176,100.9Z" fill="#fff" opacity="0.46"/><rect x="213.89" y="105.88" width="9.66" height="6.72" transform="translate(28.24 -44.02) rotate(12.28)" fill="#ffd200"/><polygon points="200.77 210.31 195.46 180.31 233.09 180.31 236.35 205.88 253.6 206.12 253.6 210.31 200.77 210.31" fill="#ffd200"/><polygon points="229.91 183.78 232.48 205.48 204.47 205.48 201.19 183.78 229.91 183.78" fill="#fff"/><rect x="155.87" y="201.62" width="34.38" height="7.65" fill="#ffd200"/><rect x="155.87" y="194.01" width="34.38" height="7.65" fill="#ffd200"/><rect x="155.87" y="194.01" width="34.38" height="7.65" opacity="0.08"/><path d="M141.24,149.4s20.1,15.07,28.69,36.25a17.29,17.29,0,0,1-15.86,23.86l-23.57.16Z" fill="#f4a28c"/><ellipse cx="158" cy="36.18" rx="17.4" ry="14.48" fill="#24285b"/><polygon points="170.14 42.79 176.33 53.32 166.13 45.76 170.14 42.79" fill="#24285b"/><circle cx="164.86" cy="36.18" r="2.15" fill="#fff"/><circle cx="157.96" cy="36.18" r="2.15" fill="#fff"/><circle cx="151.15" cy="36.18" r="2.15" fill="#fff"/><path d="M200,70s-.11-2.12-1.71-1.9-1.44,3.29.74,3.51Z" fill="#f4a28c"/><rect x="79.3" y="209.28" width="248.36" height="12.9" fill="#e6e6e6"/><rect x="79.3" y="221.58" width="248.36" height="29.24" fill="#c9c9c9"/><path d="M228,209.67s-8.33,30.64-28,41.15H327.65L325.1,234l-83.32-24.72Z" opacity="0.08"/><polygon points="282.62 129.05 284.44 139.59 293.93 140.28 288.15 123.43 282.62 129.05" fill="#f4a28c"/><path d="M285.94,113.49a6.31,6.31,0,0,0-10,3.4c-1.29,4.83-2.17,11.89,3.43,12.46,8.57.89,10.06-10.16,10.06-10.16A11.48,11.48,0,0,0,285.94,113.49Z" fill="#f4a28c"/><path d="M284.29,121.44s.89-2.21,2.64-.69-.59,4-1.95,3.46S284.29,121.44,284.29,121.44Z" fill="#f4a28c"/><path d="M282.16,119.6s1.79,11.35,7.29,7.62.11-6.12.71-11.92-2.46-7.86-8.87-9.23c-2.94-.62-4.73-.69-6-1.16a3.55,3.55,0,0,0-4.85,3.56C270.88,112.94,273.51,117.86,282.16,119.6Z" fill="#24285b"/><path d="M319.16,145.38s-22.84-12.68-43.17-5.1c-37,13.8-34.85,39.46-8.86,110.54l33.25-.19Z" fill="#68e1fd"/><path d="M284.11,138.73s2.2,5.41-1.59,21.15-23.38,68.49-23.38,68.49l7.77,22.07H279.3L317.41,145S300.18,136.09,284.11,138.73Z" opacity="0.08"/><path d="M276,250.82s-6.56-97.93,35-105.44S366.26,173.55,342,250.15Z" fill="#ffd200"/><path d="M286.57,250.15s-7-97.26,34.51-104.77,54.31,29.33,30.05,105.93Z" fill="#ffd200"/><path d="M286.63,250.71s-7.07-97.82,34.45-105.33,54.31,29.33,30.05,105.93Z" opacity="0.08"/><path d="M279.34,165c-.7-13.35-17.66-18.75-26-8.34-6.48,8.05-11,19.9-10.44,37.38,1,35.92-22.82,56.81-22.82,56.81h24.21s20.57-24.3,31.74-62.68C278.8,178.47,279.65,170.89,279.34,165Z" fill="#68e1fd"/><polygon points="117.86 129.05 116.03 139.59 106.55 140.28 112.32 123.43 117.86 129.05" fill="#f4a28c"/><path d="M114.54,113.49a6.31,6.31,0,0,1,10,3.4c1.28,4.83,2.16,11.89-3.43,12.46-8.57.89-10.06-10.16-10.06-10.16A11.48,11.48,0,0,1,114.54,113.49Z" fill="#f4a28c"/><path d="M116.19,121.44s-.89-2.21-2.65-.69.59,4,2,3.46S116.19,121.44,116.19,121.44Z" fill="#f4a28c"/><path d="M81.32,145.38s22.84-12.68,43.17-5.1c37,13.8,35,38.6,9,109.68l-34.07.19Z" fill="#68e1fd"/><path d="M116.27,138.25s-2.2,5.41,1.59,21.15,23.38,68.48,23.38,68.48L133.47,250H121.08L83,144.54S100.2,135.61,116.27,138.25Z" opacity="0.08"/><path d="M124,250.15s7-97.26-34.51-104.77S34.22,173.55,58.48,250.15Z" fill="#ffd200"/><path d="M113.91,250.15s7-97.26-34.51-104.77S24.08,173.55,48.35,250.15Z" fill="#ffd200"/><path d="M113.91,250.15s7-97.26-34.51-104.77S24.08,173.55,48.35,250.15Z" opacity="0.08"/><path d="M104.4,134.13a13.84,13.84,0,0,0,2.18-12.78c-1-3.29-1-7.51,2.76-11.94,8.28-9.81,20.11-2.89,16.19,2.7s-6.07,8.1-6.07,8.1,14.29,15,6.84,24.19C119.68,152.54,92.6,149.11,104.4,134.13Z" fill="#24285b"/><path d="M209.79,148.7s1.81-6.37,6-8.42,5.36,7.86-1.69,12.26Z" fill="#f4a28c"/></svg>