<?xml version="1.0" encoding="utf-8"?>
<!-- Generator: Adobe Illustrator 21.0.0, SVG Export Plug-In . SVG Version: 6.00 Build 0)  -->
<svg version="1.1" id="Layer_1" xmlns="http://www.w3.org/2000/svg" xmlns:xlink="http://www.w3.org/1999/xlink" x="0px" y="0px"
	 width="1400px" height="980px" viewBox="0 0 1400 980" style="enable-background:new 0 0 1400 980;" xml:space="preserve">
<style type="text/css">
	.st0{fill-rule:evenodd;clip-rule:evenodd;fill:#B7ECF0;}
	.st1{fill-rule:evenodd;clip-rule:evenodd;fill:#86B2B5;}
	.st2{fill-rule:evenodd;clip-rule:evenodd;fill:#AADCE0;}
	.st3{fill-rule:evenodd;clip-rule:evenodd;fill:#95C4C7;}
	.st4{fill-rule:evenodd;clip-rule:evenodd;fill:#729EA1;}
	.st5{fill-rule:evenodd;clip-rule:evenodd;fill:#A9DADE;}
	.st6{fill-rule:evenodd;clip-rule:evenodd;fill:#FCD1C0;}
	.st7{fill-rule:evenodd;clip-rule:evenodd;fill:#5D97A6;}
	.st8{fill-rule:evenodd;clip-rule:evenodd;fill:#BFA675;}
	.st9{fill-rule:evenodd;clip-rule:evenodd;fill:#AB9363;}
	.st10{fill-rule:evenodd;clip-rule:evenodd;fill:#71B2C2;}
	.st11{fill-rule:evenodd;clip-rule:evenodd;fill:#F7C6B2;}
	.st12{fill-rule:evenodd;clip-rule:evenodd;fill:#A18262;}
	.st13{fill-rule:evenodd;clip-rule:evenodd;fill:#C49B72;}
	.st14{fill-rule:evenodd;clip-rule:evenodd;fill:#D6AD85;}
	.st15{fill-rule:evenodd;clip-rule:evenodd;fill:#856B51;}
	.st16{fill-rule:evenodd;clip-rule:evenodd;fill:#735139;}
	.st17{fill-rule:evenodd;clip-rule:evenodd;fill:#F77620;}
	.st18{fill-rule:evenodd;clip-rule:evenodd;fill:#FF9E5E;}
	.st19{fill-rule:evenodd;clip-rule:evenodd;fill:#292929;}
	.st20{fill-rule:evenodd;clip-rule:evenodd;fill:#C26425;}
	.st21{fill-rule:evenodd;clip-rule:evenodd;fill:#333333;}
	.st22{fill-rule:evenodd;clip-rule:evenodd;fill:#4D4D4D;}
	.st23{fill-rule:evenodd;clip-rule:evenodd;fill:#696969;}
	.st24{fill-rule:evenodd;clip-rule:evenodd;fill:#FFFFFF;}
	.st25{fill-rule:evenodd;clip-rule:evenodd;fill:#E6E6E6;}
	.st26{fill-rule:evenodd;clip-rule:evenodd;fill:#298787;}
	.st27{fill-rule:evenodd;clip-rule:evenodd;fill:#B3B3B3;}
	.st28{fill-rule:evenodd;clip-rule:evenodd;fill:#CCCCCC;}
	.st29{fill-rule:evenodd;clip-rule:evenodd;fill:#999999;}
	.st30{fill-rule:evenodd;clip-rule:evenodd;fill:#FC883A;}
</style>
<g>
	<rect class="st0" width="1400" height="980"/>
	<polygon class="st1" points="1400,980 1400,587.7 720.5,980 	"/>
	<polygon class="st1" points="0,617.4 1069.3,0 0,0 	"/>
	<g>
		<path class="st2" d="M0,423.1l15.4,8.9l151.9,87.7c152.2-87.9,304.3-175.7,456.5-263.6V80.7V0H0V423.1z"/>
		<path class="st3" d="M88.7,214.3l78.6-45.4h0v175.4v175.4c152.2-87.9,304.3-175.7,456.5-263.6V80.7V0H225.8L88.7,214.3z"/>
		<polygon class="st0" points="0,163.1 88.7,214.3 225.8,0 0,0 		"/>
		<path class="st3" d="M167.2,344.3v175.4c152.2-87.9,43-24.8,195.1-112.7V231.6V56.3L167.2,168.9V344.3z"/>
		<g>
			<g>
				<path class="st0" d="M269,214.6v36.5c31.6-18.3,8.9-5.2,40.6-23.4v-36.5v-36.5L269,178.2V214.6z"/>
				<path class="st0" d="M220,242.9v36.5c31.6-18.3,8.9-5.2,40.6-23.4v-36.5V183L220,206.5V242.9z"/>
			</g>
			<g>
				<path class="st0" d="M269,299.8v36.5c31.6-18.3,8.9-5.2,40.6-23.4v-36.5v-36.5L269,263.3V299.8z"/>
				<path class="st0" d="M220,328.1v36.5c31.6-18.3,8.9-5.2,40.6-23.4v-36.5v-36.5L220,291.6V328.1z"/>
			</g>
		</g>
		<path class="st4" d="M429.1,243.9v124.5c108-62.4,30.5-17.6,138.6-80V163.9V39.4l-138.6,80V243.9z"/>
		<path class="st0" d="M457.3,224.7c108,62.4,2.4,1.4,110.4,63.7V163.9V39.4l-110.4,63.8V224.7z"/>
		<circle class="st3" cx="472.8" cy="140.3" r="8.4"/>
	</g>
	<path class="st5" d="M1113.5,422.8c-25.8-6.1-46.7-2.6-46.7,7.9c0,10.5,20.9,23.9,46.7,30c25.8,6.1,46.7,2.6,46.7-7.9
		S1139.3,428.9,1113.5,422.8z"/>
	<g>
		<g>
			<path class="st6" d="M724.1,210.4l-22.5-13V175c0-3.6-3-6.6-6.6-6.6c-3.6,0-6.6,3-6.6,6.6v30l28.4,16.4c0.2,0.2-1-0.5,0.7,0.5
				c1.7,1,7.2,0.7,9-2.4C728.3,216.2,727.2,212.2,724.1,210.4z"/>
			<path class="st7" d="M695,168.4c-3.6,0-6.6,3-6.6,6.6v19.6c0,0.9,3,1.7,6.6,1.7c3.6,0,6.6-0.7,6.6-1.7V175
				C701.6,171.3,698.6,168.4,695,168.4z"/>
		</g>
		<path class="st8" d="M689.5,260.1l-9,5.2v9.8l18,10.4l9-5.2C707.8,269.3,702.9,267.9,689.5,260.1z"/>
		<path class="st9" d="M680.5,265.3v9.8l18,10.4C698.8,274.5,694,273.1,680.5,265.3z"/>
		<path class="st7" d="M689.5,206.7l-4.5,2.6l-4.5,2.6v48.2v5.2c0,2,4,3.7,9,3.7c5,0,9-1.6,9-3.7v-5.2v-34.3v-14l-4.5-2.6
			L689.5,206.7z"/>
		<path class="st10" d="M674.6,163.1l-8,4.6c-5.9,3.4-10.8,11.1-10.8,17v50.7l13.1,7.5c9-16.9,17.9-56.5,26.9-73.3l-12.9-7.4
			C680.3,160.6,676.9,161.7,674.6,163.1z"/>
		<path class="st10" d="M687.6,170.6l-8,4.6c-5.9,3.4-10.8,11.1-10.8,17v50.7l29.6-17v-50.7C698.5,169.2,693.6,167.2,687.6,170.6z"
			/>
		<path class="st8" d="M664.8,274.4l-9,5.2v9.8l18,10.4l9-5.2C683.1,283.6,678.2,282.1,664.8,274.4z"/>
		<path class="st9" d="M655.8,279.5v9.8l18,10.4C674.1,288.8,669.3,287.3,655.8,279.5z"/>
		<path class="st10" d="M664.8,220.9l-4.5,2.6l-4.5,2.6v48.2v5.2c0,2,4,3.7,9,3.7c5,0,9-1.6,9-3.7v-5.2v-34.3v-14l-4.5-2.6
			L664.8,220.9z"/>
		<g>
			<path class="st6" d="M691.4,221.6l-22.5-13v-22.4c0-3.6-3-6.6-6.6-6.6c-3.6,0-6.6,3-6.6,6.6v30l28.4,16.4c0.2,0.2-1-0.5,0.7,0.5
				c1.7,1,7.2,0.7,9-2.4C695.7,227.4,694.6,223.4,691.4,221.6z"/>
			<path class="st7" d="M662.4,179.6c-3.6,0-6.6,3-6.6,6.6v19.6c0,0.9,3,1.7,6.6,1.7c3.6,0,6.6-0.7,6.6-1.7v-19.6
				C668.9,182.6,666,179.6,662.4,179.6z"/>
		</g>
		<path class="st11" d="M657.7,140.3v22.3c0,2,0.8,3.3,2,4l13.3,7.1c1.8,1.1,4.2,0.3,5.9-0.7l5.7-3.3c4.3-2.4,7.7-7.9,7.7-12.2
			v-22.3l-13.4-7.1L657.7,140.3z"/>
		<path class="st6" d="M671.2,169.7c0,4.3,3.5,5.7,7.7,3.3l5.7-3.3c4.3-2.4,7.7-7.9,7.7-12.2v-22.3l-21.2,12.2V169.7z"/>
		<g>
			<polygon class="st12" points="664.8,227.4 700.9,248.3 700.9,219.1 664.8,198.2 			"/>
			<polygon class="st13" points="700.9,248.3 758.5,215 758.5,185.9 700.9,219.1 			"/>
			<polygon class="st14" points="664.8,198.2 700.9,219.1 758.5,185.9 722.3,165 			"/>
			<polygon class="st15" points="680.7,236.7 684.9,239.1 684.9,209.9 680.7,207.5 			"/>
			<polygon class="st13" points="680.7,207.5 684.9,209.9 742.5,176.7 738.3,174.3 			"/>
		</g>
		<path class="st16" d="M685.9,128.2c-7.4-2.3-18-2.3-24.1,3.1c-5.9,5.3-7.6,5.9-7.6,14.4c0,2.8,2.3,13.2,2.2,14.1
			c-0.6,7.4,9.6,1.1,9.6-0.7c0-5.1,3.2-5.4,5-3c1.4,1.7,5.5-4.7,5.4-6.4c0-0.6,9.9-2.8,11.6-3C694.3,145.7,695.3,131.1,685.9,128.2z
			"/>
		<path class="st17" d="M654.6,148.4l19.9,6.9l19.9-6.1V137C694.3,121.9,650.9,114,654.6,148.4z"/>
		<path class="st18" d="M694.3,149.2l-19.9,6.1C692.2,163,708.5,155.1,694.3,149.2z"/>
	</g>
	<g>
		<path class="st5" d="M519.2,408.8l-93.1,53.8v0V492l27.8,16L428,522.9l91.2,52.6L428,522.9l-45,95.9v76.7l164.9,95.2l13.7-7.9
			l20,11.6c1.2,0.9,2.4,1.6,3.8,2.2l0,0h0c7.1,2.9,16.9,1.6,27.6-4.7c21.4-12.5,38.8-39.8,39.1-61.4l25.8-14.9l27.5,15.9L890,624.9
			l20.3,11.7c1.2,0.9,2.4,1.6,3.8,2.2l0,0c7.1,2.9,16.8,1.6,27.6-4.7c21.5-12.6,39-40.1,39.1-61.7l45.8-26.4V330.9l-320.4,185
			l-0.8,0.5l321.2-185.4L840.4,223.4L519.2,408.8z"/>
		<path class="st19" d="M571.6,663.5c-22.1,12.9-40,41.2-40,63.3c0,11,4.5,18.4,11.7,21.4v0l34.5,19.9l56.6-89.6l-30.6-17.7
			C596.5,655.3,584.8,655.8,571.6,663.5z"/>
		<path class="st19" d="M907.8,502.2c-22.1,12.9-40,41.2-40,63.3c0,11,4.5,18.4,11.7,21.4l34.5,19.9l56.6-89.6l-30.6-17.7
			C932.7,494,921,494.5,907.8,502.2z"/>
		<polygon class="st20" points="510.1,371.6 510.1,591.6 700.6,701.6 700.6,481.6 510.1,371.6 		"/>
		<polygon class="st17" points="700.6,701.6 1029.1,512 1029.1,292 700.6,481.6 		"/>
		<polygon class="st20" points="700.6,701.6 1029.1,512 1029.1,472.6 700.6,662.3 		"/>
		<g>
			<path class="st21" d="M942.3,522.1c-22.1,12.9-40,41.2-40,63.3c0,22.1,17.9,29.5,40,16.6c22.1-12.9,40-41.2,40-63.3
				C982.3,516.7,964.4,509.2,942.3,522.1z"/>
			<g>
				<path class="st22" d="M942.3,539.9c-12.3,7.2-22.2,22.9-22.2,35.2c0,12.3,10,16.4,22.2,9.3c12.3-7.2,22.2-22.9,22.2-35.2
					C964.5,536.8,954.6,532.7,942.3,539.9z"/>
				<path class="st23" d="M943.6,544.2c-11,6.4-19.9,20.5-19.9,31.5c0,1.7,0.2,3.2,0.6,4.6c3,0.1,6.6-0.9,10.4-3.1
					c11-6.4,19.9-20.5,19.9-31.5c0-1.7-0.2-3.2-0.6-4.6C951,540.9,947.4,541.9,943.6,544.2z"/>
			</g>
		</g>
		<path class="st20" d="M942.3,516.8c-25.4,14.8-46.2,46.9-47.5,72.7l16.4-9.5c1.2-16.8,14.7-37.3,31-46.9c16.5-9.6,30-4.7,31.1,11
			l16.4-9.5C988.8,509.9,967.9,501.8,942.3,516.8z"/>
		<path class="st24" d="M416.9,488.4l168.6,97.3l94.1-54.4L511,434C398.6,498.9,529.3,423.5,416.9,488.4z"/>
		<polygon class="st25" points="370.9,586.4 370.9,664.8 539.5,762.2 539.5,683.8 585.5,585.7 416.9,488.4 		"/>
		<polygon class="st26" points="380.9,583.3 536.1,672.9 575.5,588.8 420.3,499.2 		"/>
		<polygon class="st27" points="370.9,664.8 539.5,762.2 539.5,722.8 370.9,625.5 		"/>
		<polygon class="st28" points="539.5,683.8 539.5,762.2 679.6,681.2 679.6,531.3 585.5,585.7 		"/>
		<polygon class="st27" points="539.5,762.2 647.6,699.8 679.6,681.2 679.6,641.9 539.5,722.8 		"/>
		<polygon class="st26" points="559.4,659.4 671.9,594.5 671.9,544.7 591.5,591.2 		"/>
		<g>
			<path class="st21" d="M606.1,683.4c-22.1,12.9-40,41.2-40,63.3c0,22.1,17.9,29.5,40,16.6c22.1-12.9,40-41.2,40-63.3
				C646.1,678,628.2,670.5,606.1,683.4z"/>
			<path class="st22" d="M606.1,701.2c-12.3,7.2-22.2,22.9-22.2,35.2c0,12.3,10,16.4,22.2,9.3c12.3-7.2,22.2-22.9,22.2-35.2
				C628.3,698.1,618.4,694,606.1,701.2z"/>
			<path class="st23" d="M607.4,705.5c-11,6.4-19.9,20.5-19.9,31.5c0,1.7,0.2,3.2,0.6,4.6c3,0.1,6.6-0.9,10.4-3.1
				c11-6.4,19.9-20.5,19.9-31.5c0-1.7-0.2-3.2-0.6-4.6C614.8,702.2,611.2,703.2,607.4,705.5z"/>
		</g>
		<path class="st27" d="M606.1,678c-25.4,14.8-46.2,46.9-47.5,72.7l16.4-9.5c1.2-16.8,14.7-37.3,31-46.9c16.5-9.7,30-4.7,31.1,11
			l16.4-9.5C652.6,671.2,631.7,663.1,606.1,678z"/>
		<path class="st26" d="M521.4,675.2L483.5,654c-2.2-1.2-3.9,0.1-3.9,3v18.9c0,2.8,1.8,6.2,3.9,7.4l37.9,21.1c2.2,1.2,3.9-0.1,3.9-3
			v-18.9C525.4,679.7,523.6,676.4,521.4,675.2z"/>
		<path class="st26" d="M423,618.6L385,597.4c-2.2-1.2-3.9,0.1-3.9,3v18.9c0,2.8,1.8,6.2,3.9,7.4l37.9,21.1c2.2,1.2,3.9-0.1,3.9-3
			v-18.9C426.9,623.1,425.2,619.8,423,618.6z"/>
		<polygon class="st18" points="414.9,426.6 414.9,456.7 605.4,566.7 605.4,536.6 414.9,426.6 		"/>
		<polygon class="st17" points="605.4,566.7 701.5,511.2 701.5,481.1 701.5,481.1 605.4,536.6 		"/>
		<path class="st29" d="M577.4,624.2h-11.7c-3.5,0-6.3,2.8-6.3,6.3v29c0,3.5,2.8,6.3,6.3,6.3h11.7c3.5,0,6.3-2.8,6.3-6.3v-29
			C583.6,627,580.8,624.2,577.4,624.2z"/>
		<path class="st25" d="M465.7,687.6l-37.9-21.1c-2.2-1.2-3.9,0.1-3.9,3V682c0,2.8,1.8,6.2,3.9,7.4l37.9,21.1c2.2,1.2,3.9-0.1,3.9-3
			v-12.6C469.6,692.1,467.8,688.8,465.7,687.6z"/>
		<path class="st30" d="M414.9,426.6l190.5,110L1029.1,292L838.6,182C711.6,255.3,541.9,353.3,414.9,426.6z"/>
	</g>
	<g>
		<g>
			<path class="st6" d="M1098.7,324.1c-3.6,0-6.6,3-6.6,6.6v22.4l-22.5,13c-3.2,1.8-4.2,5.8-2.4,9c1.8,3.2,7.3,3.4,9,2.4
				c1.7-1,0.5-0.3,0.7-0.5l28.4-16.4v-30C1105.3,327.1,1102.3,324.1,1098.7,324.1z"/>
			<path class="st7" d="M1098.7,324.1c-3.6,0-6.6,3-6.6,6.6v19.6c0,0.9,3,1.7,6.6,1.7s6.6-0.7,6.6-1.7v-19.6
				C1105.3,327.1,1102.3,324.1,1098.7,324.1z"/>
		</g>
		<path class="st8" d="M1086.3,436l9,5.2l18-10.4v-9.8l-9-5.2C1090.7,423.7,1085.9,425.1,1086.3,436z"/>
		<path class="st9" d="M1095.2,441.2l18-10.4v-9.8C1099.7,428.9,1094.9,430.3,1095.2,441.2z"/>
		<path class="st7" d="M1104.2,362.5l-4.5,2.6l-4.5,2.6v14v34.3v5.2c0,2,4,3.7,9,3.7s9-1.6,9-3.7v-5.2v-48.2l-4.5-2.6L1104.2,362.5z
			"/>
		<path class="st10" d="M1127.1,323.4l-8-4.6c-2.4-1.4-5.7-2.4-8.2-0.9l-12.9,7.4c9,16.9,17.9,56.5,26.9,73.3l13.1-7.5v-50.7
			C1137.9,334.5,1133.1,326.8,1127.1,323.4z"/>
		<path class="st10" d="M1114.1,330.9l-8-4.6c-5.9-3.4-10.8-1.4-10.8,4.6v50.7l29.6,17V348C1124.9,342,1120,334.4,1114.1,330.9z"/>
		<path class="st8" d="M1111,450.3l9,5.2l18-10.4v-9.8l-9-5.2C1115.5,437.9,1110.6,439.3,1111,450.3z"/>
		<path class="st9" d="M1120,455.4l18-10.4v-9.8C1124.4,443.1,1119.6,444.5,1120,455.4z"/>
		<path class="st10" d="M1128.9,376.7l-4.5,2.6l-4.5,2.6v14v34.3v5.2c0,2,4,3.7,9,3.7s9-1.6,9-3.7v-5.2v-48.2l-4.5-2.6L1128.9,376.7
			z"/>
		<g>
			<path class="st6" d="M1131.3,335.3c-3.6,0-6.6,3-6.6,6.6v22.4l-22.5,13c-3.2,1.8-4.2,5.8-2.4,9c1.8,3.2,7.3,3.4,9,2.4
				c1.7-1,0.5-0.3,0.7-0.5l28.4-16.4v-30C1137.9,338.3,1135,335.3,1131.3,335.3z"/>
			<path class="st7" d="M1131.3,335.3c-3.6,0-6.6,3-6.6,6.6v19.6c0,0.9,2.9,1.7,6.6,1.7c3.6,0,6.6-0.7,6.6-1.7v-19.6
				C1137.9,338.3,1135,335.3,1131.3,335.3z"/>
		</g>
		<path class="st11" d="M1101.3,290.9v22.3c0,4.3,3.5,9.7,7.7,12.2l5.7,3.3c1.7,1,4.1,1.7,5.9,0.7l13.3-7.1c1.2-0.7,2-2,2-4V296
			l-21.2-12.2L1101.3,290.9z"/>
		<path class="st6" d="M1101.3,313.3c0,4.3,3.5,9.7,7.7,12.2l5.7,3.3c4.3,2.4,7.7,1,7.7-3.3v-22.3l-21.2-12.2V313.3z"/>
		<g>
			<polygon class="st12" points="1092.8,404 1128.9,383.1 1128.9,354 1092.8,374.9 			"/>
			<polygon class="st13" points="1035.2,370.8 1092.8,404 1092.8,374.8 1035.2,341.6 			"/>
			<polygon class="st14" points="1035.2,341.6 1092.8,374.8 1128.9,354 1071.4,320.7 			"/>
			<polygon class="st15" points="1108.8,394.8 1113,392.4 1113,363.2 1108.8,365.7 			"/>
			<polygon class="st13" points="1051.2,332.4 1108.8,365.7 1113,363.2 1055.4,330 			"/>
		</g>
		<path class="st16" d="M1131.8,287.1c-6-5.4-16.7-5.4-24.1-3.1c-6.2,1.9-2.8,4.2-10.6,3.2c-4.9-0.6-6.9,0.9-6.8,2
			c0.7,6.6,9.6,11.6,15.3,13.3c1.6,0.5,11.6,2.4,11.6,3c-0.1,1.6,4,8.1,5.4,6.4c1.9-2.3,5-2.1,5,3c0,1.9,10.2,8.2,9.6,0.7
			c-0.1-0.9,2.2-11.3,2.2-14.1C1139.4,293,1137.7,292.4,1131.8,287.1z"/>
	</g>
	<g>
		<path class="st24" d="M486.5,514.9c-1-0.4-1.7-0.7-2-0.8c-0.3-0.2-0.6-0.4-0.8-0.6c-0.2-0.2-0.2-0.5-0.2-0.8
			c0-0.5,0.2-0.8,0.6-1.1c0.4-0.3,1-0.4,1.9-0.4c0.9,0,2,0.2,3.1,0.7l0.6-1.4c-1.2-0.5-2.4-0.8-3.6-0.8c-1.3,0-2.4,0.3-3.1,0.8
			c-0.8,0.5-1.1,1.3-1.1,2.2c0,0.5,0.1,1,0.3,1.3c0.2,0.4,0.5,0.7,1,1c0.4,0.3,1.2,0.6,2.3,1c1.1,0.4,1.9,0.8,2.3,1.1
			c0.4,0.3,0.6,0.7,0.6,1.1c0,0.6-0.2,1-0.7,1.3c-0.5,0.3-1.2,0.4-2.1,0.4c-0.6,0-1.2-0.1-1.8-0.2c-0.6-0.2-1.2-0.4-1.8-0.7v1.6
			c0.8,0.5,2,0.7,3.5,0.7c1.4,0,2.5-0.3,3.3-0.9c0.8-0.6,1.2-1.4,1.2-2.5c0-0.8-0.2-1.4-0.7-1.9
			C488.8,515.9,487.9,515.4,486.5,514.9z"/>
		<path class="st24" d="M531,516c0,1.5-0.3,2.5-0.8,3.2c-0.6,0.7-1.4,1-2.6,1c-0.9,0-1.6-0.2-2-0.7c-0.4-0.5-0.6-1.2-0.6-2.1V510
			h-1.7v7.5c0,1.4,0.3,2.5,1,3.2c0.7,0.7,1.7,1,3.1,1c0.8,0,1.5-0.2,2.1-0.4c0.6-0.3,1.1-0.7,1.5-1.3h0.1l0.2,1.5h1.4V510H531V516z"
			/>
		<path class="st24" d="M462.4,505.8c-0.3,0-0.5,0.1-0.7,0.3c-0.2,0.2-0.3,0.5-0.3,0.9c0,0.4,0.1,0.7,0.3,0.9
			c0.2,0.2,0.4,0.3,0.7,0.3c0.3,0,0.5-0.1,0.7-0.3c0.2-0.2,0.3-0.5,0.3-0.9c0-0.4-0.1-0.7-0.3-0.9
			C462.9,505.9,462.7,505.8,462.4,505.8z"/>
		<path class="st24" d="M505,492.2c0.6,0.3,1.3,0.4,2,0.4c1.5,0,2.6-0.5,3.5-1.6c0.8-1,1.3-2.5,1.3-4.4c0-1.9-0.4-3.3-1.2-4.4
			c-0.8-1-2-1.6-3.5-1.6c-0.8,0-1.4,0.1-2,0.4c-0.6,0.3-1.1,0.7-1.6,1.4h-0.1l-0.2-1.6h-1.4v16.5h1.7v-4.7c0-0.6,0-1.2-0.1-1.9h0.1
			C503.9,491.5,504.4,491.9,505,492.2z M503.5,486.3c0-1.4,0.3-2.4,0.8-3.1c0.5-0.6,1.4-1,2.5-1c1,0,1.8,0.4,2.4,1.1
			c0.6,0.8,0.8,1.8,0.8,3.3c0,1.4-0.3,2.5-0.8,3.3c-0.6,0.8-1.3,1.2-2.3,1.2c-1.2,0-2-0.3-2.6-1c-0.5-0.7-0.8-1.8-0.8-3.4V486.3z"/>
		<path class="st24" d="M512.4,509.9l0,0.8l0.1,0.8h-0.1c-0.8-1.1-2-1.7-3.6-1.7c-1.5,0-2.6,0.5-3.5,1.6c-0.8,1-1.2,2.5-1.2,4.4
			c0,1.9,0.4,3.3,1.2,4.3c0.8,1,2,1.5,3.5,1.5c1.6,0,2.8-0.6,3.6-1.7h0.1l0.2,1.5h1.4v-16.2h-1.7V509.9z M512.4,516.1
			c0,1.4-0.3,2.5-0.8,3.1c-0.5,0.6-1.4,1-2.6,1c-1,0-1.8-0.4-2.4-1.1c-0.5-0.7-0.8-1.8-0.8-3.3c0-1.4,0.3-2.6,0.8-3.3
			c0.5-0.8,1.3-1.2,2.3-1.2c1.2,0,2,0.3,2.6,1c0.5,0.7,0.8,1.8,0.8,3.5V516.1z"/>
		<path class="st24" d="M575.9,546.6c-0.4,1.2-0.6,1.9-0.7,2.3h-0.1c-0.1-0.5-0.4-1.5-1-3.1l-2.5-6.8h-1.9l4.3,11.4h2l4.3-11.4h-1.9
			C577.2,542.9,576.3,545.4,575.9,546.6z"/>
		<rect x="594.2" y="534.2" class="st24" width="1.7" height="16.2"/>
		<path class="st24" d="M456.1,510.4c-0.6,0.4-1.1,1-1.5,1.7h-0.1l-0.2-2.1h-1.4v11.4h1.7v-6.1c0-1.1,0.3-2.1,1-2.8
			c0.7-0.7,1.4-1.1,2.4-1.1c0.4,0,0.8,0.1,1.2,0.2l0.2-1.6c-0.4-0.1-0.9-0.1-1.4-0.1C457.3,509.8,456.7,510,456.1,510.4z"/>
		<rect x="461.5" y="510" class="st24" width="1.7" height="11.4"/>
		<path class="st24" d="M518.7,485.9c-1-0.4-1.7-0.6-2-0.8c-0.3-0.2-0.6-0.4-0.8-0.6c-0.2-0.2-0.2-0.5-0.2-0.8
			c0-0.5,0.2-0.8,0.6-1.1c0.4-0.3,1-0.4,1.9-0.4c0.9,0,2,0.2,3.1,0.7l0.6-1.4c-1.2-0.5-2.4-0.7-3.6-0.7c-1.3,0-2.4,0.3-3.1,0.8
			c-0.8,0.5-1.1,1.3-1.1,2.2c0,0.5,0.1,1,0.3,1.3c0.2,0.4,0.5,0.7,1,1c0.4,0.3,1.2,0.6,2.3,1c1.1,0.4,1.9,0.8,2.3,1.1
			c0.4,0.3,0.6,0.7,0.6,1.1c0,0.6-0.2,1-0.7,1.3c-0.5,0.3-1.2,0.4-2.1,0.4c-0.6,0-1.2-0.1-1.8-0.2c-0.6-0.2-1.2-0.4-1.8-0.7v1.6
			c0.8,0.5,2,0.7,3.5,0.7c1.4,0,2.5-0.3,3.3-0.9c0.8-0.6,1.2-1.4,1.2-2.5c0-0.8-0.2-1.4-0.7-1.9C521,486.9,520.1,486.4,518.7,485.9z
			"/>
		<path class="st24" d="M586.7,538.8c-1.5,0-2.7,0.5-3.6,1.6c-0.9,1.1-1.4,2.5-1.4,4.4c0,1.8,0.5,3.3,1.5,4.3c1,1,2.3,1.5,4,1.5
			c0.8,0,1.4-0.1,2-0.2c0.5-0.1,1.1-0.3,1.7-0.6v-1.5c-1.2,0.5-2.4,0.8-3.6,0.8c-1.2,0-2.1-0.3-2.7-1c-0.6-0.7-1-1.7-1-3.1h7.9v-1.1
			c0-1.5-0.4-2.8-1.2-3.7C589.2,539.3,588.1,538.8,586.7,538.8z M583.5,543.6c0.1-1.1,0.4-1.9,1-2.5c0.5-0.6,1.3-0.9,2.2-0.9
			c0.9,0,1.6,0.3,2.1,0.9c0.5,0.6,0.7,1.4,0.7,2.5H583.5z"/>
		<rect x="536.4" y="505.2" class="st24" width="1.7" height="16.2"/>
		<path class="st24" d="M547,492.4V486c0-1.3,0.3-2.2,0.8-2.8c0.5-0.6,1.3-0.9,2.4-0.9c0.8,0,1.4,0.2,1.8,0.7c0.4,0.5,0.6,1.1,0.6,2
			v7.4h1.7v-7.4c0-1.5-0.3-2.5-1-3.2c-0.6-0.7-1.6-1-2.9-1c-0.8,0-1.6,0.2-2.2,0.5c-0.6,0.3-1.1,0.8-1.5,1.4h-0.1
			c-0.5-1.3-1.7-1.9-3.5-1.9c-0.7,0-1.4,0.2-2,0.5c-0.6,0.3-1.1,0.7-1.4,1.3h-0.1l-0.3-1.6H538v11.4h1.7v-6c0-1.5,0.3-2.5,0.8-3.2
			c0.5-0.6,1.3-1,2.4-1c0.8,0,1.4,0.2,1.8,0.7c0.4,0.5,0.6,1.1,0.6,2v7.4H547z"/>
		<rect x="541.8" y="505.2" class="st24" width="1.7" height="16.2"/>
		<path class="st24" d="M484.9,482.9c0.4,0.5,0.6,1.1,0.6,2v7.4h1.7v-7.4c0-1.5-0.3-2.5-1-3.2c-0.6-0.7-1.6-1-2.9-1
			c-0.8,0-1.6,0.2-2.2,0.5c-0.6,0.3-1.1,0.8-1.5,1.4h-0.1c-0.5-1.3-1.7-1.9-3.5-1.9c-0.7,0-1.4,0.2-2,0.5c-0.6,0.3-1.1,0.7-1.4,1.3
			h-0.1l-0.3-1.6H471v11.4h1.7v-6c0-1.5,0.3-2.5,0.8-3.2c0.5-0.6,1.3-1,2.4-1c0.8,0,1.4,0.2,1.8,0.7c0.4,0.5,0.6,1.1,0.6,2v7.4h1.7
			V486c0-1.3,0.3-2.2,0.8-2.8c0.5-0.6,1.3-0.9,2.4-0.9C483.9,482.2,484.5,482.5,484.9,482.9z"/>
		<path class="st24" d="M497.2,509.8c-1.5,0-2.7,0.5-3.6,1.6c-0.9,1.1-1.4,2.5-1.4,4.4c0,1.8,0.5,3.3,1.5,4.3c1,1,2.3,1.5,4,1.5
			c0.8,0,1.4-0.1,2-0.2c0.5-0.1,1.1-0.3,1.7-0.6v-1.5c-1.2,0.5-2.4,0.8-3.6,0.8c-1.2,0-2.1-0.3-2.7-1c-0.6-0.7-1-1.7-1-3h7.9v-1.1
			c0-1.5-0.4-2.8-1.2-3.7C499.7,510.3,498.6,509.8,497.2,509.8z M494,514.6c0.1-1.1,0.4-1.9,1-2.5c0.5-0.6,1.3-0.9,2.2-0.9
			c0.9,0,1.6,0.3,2.1,0.9c0.5,0.6,0.7,1.4,0.7,2.5H494z"/>
		<path class="st24" d="M532.7,487c0,1.5-0.3,2.5-0.8,3.2c-0.6,0.7-1.4,1-2.6,1c-0.9,0-1.6-0.2-2-0.7c-0.4-0.5-0.6-1.2-0.6-2.1V481
			h-1.7v7.5c0,1.5,0.3,2.5,1,3.2c0.7,0.7,1.7,1,3.1,1c0.8,0,1.5-0.2,2.1-0.4c0.6-0.3,1.1-0.7,1.5-1.3h0.1l0.3,1.5h1.4V481h-1.7V487z
			"/>
		<path class="st24" d="M573,511.9c0.4,0.5,0.6,1.1,0.6,2v7.4h1.7V514c0-1.5-0.3-2.5-1-3.2c-0.6-0.7-1.6-1-2.9-1
			c-0.8,0-1.6,0.2-2.2,0.5c-0.6,0.3-1.1,0.8-1.5,1.4h-0.1c-0.5-1.3-1.7-1.9-3.5-1.9c-0.7,0-1.4,0.2-2,0.5c-0.6,0.3-1.1,0.7-1.4,1.3
			h-0.1l-0.3-1.6h-1.4v11.4h1.7v-6c0-1.5,0.3-2.5,0.8-3.2c0.5-0.7,1.3-1,2.4-1c0.8,0,1.4,0.2,1.8,0.7c0.4,0.5,0.6,1.1,0.6,2v7.4h1.7
			V515c0-1.3,0.3-2.2,0.8-2.8c0.5-0.6,1.3-0.9,2.4-0.9C572,511.3,572.6,511.5,573,511.9z"/>
		<path class="st24" d="M470.8,514.9c-1-0.4-1.7-0.7-2-0.8c-0.3-0.2-0.6-0.4-0.8-0.6c-0.2-0.2-0.2-0.5-0.2-0.8
			c0-0.5,0.2-0.8,0.6-1.1c0.4-0.3,1-0.4,1.9-0.4c0.9,0,2,0.2,3.1,0.7l0.6-1.4c-1.2-0.5-2.4-0.8-3.6-0.8c-1.3,0-2.4,0.3-3.1,0.8
			c-0.8,0.5-1.1,1.3-1.1,2.2c0,0.5,0.1,1,0.3,1.3c0.2,0.4,0.5,0.7,1,1c0.4,0.3,1.2,0.6,2.3,1c1.1,0.4,1.9,0.8,2.3,1.1
			c0.4,0.3,0.6,0.7,0.6,1.1c0,0.6-0.2,1-0.7,1.3c-0.5,0.3-1.2,0.4-2.1,0.4c-0.6,0-1.2-0.1-1.8-0.2c-0.6-0.2-1.2-0.4-1.8-0.7v1.6
			c0.8,0.5,2,0.7,3.5,0.7c1.4,0,2.5-0.3,3.3-0.9c0.8-0.6,1.2-1.4,1.2-2.5c0-0.8-0.2-1.4-0.7-1.9
			C473.1,515.9,472.2,515.4,470.8,514.9z"/>
		<path class="st24" d="M551.5,509.8c-0.7,0-1.3,0.1-2,0.3c-0.7,0.2-1.3,0.4-1.8,0.7l0.5,1.3c1.2-0.6,2.3-0.9,3.2-0.9
			c0.8,0,1.5,0.2,1.8,0.6c0.4,0.4,0.6,1.1,0.6,2v0.7l-1.9,0.1c-3.7,0.1-5.5,1.3-5.5,3.6c0,1.1,0.3,1.9,1,2.5
			c0.6,0.6,1.5,0.9,2.7,0.9c0.8,0,1.5-0.1,2.1-0.4c0.6-0.3,1.1-0.7,1.7-1.5h0.1l0.3,1.6h1.3v-7.8c0-1.3-0.3-2.3-1-2.9
			C553.9,510.1,552.9,509.8,551.5,509.8z M553.8,516.8c0,1.1-0.3,1.9-0.9,2.5c-0.6,0.6-1.5,0.9-2.5,0.9c-0.7,0-1.2-0.2-1.6-0.5
			c-0.4-0.3-0.6-0.8-0.6-1.4c0-0.8,0.3-1.4,0.9-1.8c0.6-0.4,1.6-0.6,3-0.6l1.7-0.1V516.8z"/>
		<path class="st24" d="M467.6,490.3c-1.2,0.5-2.4,0.8-3.6,0.8c-1.2,0-2.1-0.3-2.7-1c-0.6-0.7-1-1.7-1-3.1h7.9v-1.1
			c0-1.5-0.4-2.8-1.3-3.7c-0.8-0.9-2-1.4-3.4-1.4c-1.5,0-2.7,0.5-3.6,1.6c-0.9,1.1-1.4,2.5-1.4,4.4c0,1.8,0.5,3.3,1.5,4.3
			c1,1,2.3,1.5,4,1.5c0.8,0,1.4-0.1,2-0.2c0.5-0.1,1.1-0.3,1.7-0.6V490.3z M461.2,483.1c0.5-0.6,1.3-0.9,2.2-0.9
			c0.9,0,1.6,0.3,2.1,0.9c0.5,0.6,0.7,1.4,0.7,2.5h-6C460.3,484.5,460.6,483.7,461.2,483.1z"/>
		<rect x="496.3" y="481" class="st24" width="1.7" height="11.4"/>
		<path class="st24" d="M811.8,492.6c0.8,0,1.5-0.2,2.2-0.4c0.6-0.3,1.1-0.7,1.5-1.3h0.1l0.2,1.5h1.4V481h-1.7v6
			c0,1.5-0.3,2.5-0.8,3.2c-0.6,0.7-1.4,1-2.6,1c-0.9,0-1.6-0.2-2-0.7c-0.4-0.5-0.6-1.2-0.6-2.1V481h-1.7v7.5c0,1.5,0.3,2.5,1,3.2
			C809.3,492.3,810.4,492.6,811.8,492.6z"/>
		<path class="st24" d="M800.3,489.1c0,2.3,1.1,3.5,3.3,3.5c0.3,0,0.6,0,1-0.1c0.4-0.1,0.6-0.1,0.8-0.2V491c-0.2,0-0.4,0.1-0.7,0.1
			c-0.3,0-0.6,0.1-0.9,0.1c-0.6,0-1-0.2-1.3-0.5c-0.3-0.4-0.5-0.9-0.5-1.6v-6.7h3.3V481h-3.3v-2.6h-1l-0.7,2.4l-1.6,0.7v0.8h1.6
			V489.1z"/>
		<path class="st24" d="M812.2,511.4c-0.8,1-1.3,2.5-1.3,4.4c0,1.9,0.4,3.3,1.2,4.3c0.8,1,2,1.5,3.5,1.5c1.6,0,2.8-0.6,3.6-1.7h0.1
			l0.2,1.5h1.4v-16.2h-1.7v4.6l0,0.8l0.1,0.8h-0.1c-0.8-1.1-2-1.7-3.6-1.7C814.2,509.8,813,510.3,812.2,511.4z M818.4,512.3
			c0.5,0.7,0.8,1.8,0.8,3.5v0.4c0,1.4-0.3,2.5-0.8,3.1c-0.5,0.6-1.4,1-2.6,1c-1,0-1.8-0.4-2.4-1.1c-0.5-0.7-0.8-1.8-0.8-3.3
			c0-1.4,0.3-2.6,0.8-3.3c0.5-0.8,1.3-1.2,2.3-1.2C817,511.2,817.9,511.6,818.4,512.3z"/>
		<rect x="860" y="481" class="st24" width="1.7" height="11.4"/>
		<path class="st24" d="M793.1,492.6c0.8,0,1.4-0.1,2-0.2c0.5-0.1,1.1-0.3,1.7-0.6v-1.5c-1.2,0.5-2.4,0.8-3.6,0.8
			c-1.2,0-2.1-0.3-2.7-1c-0.6-0.7-1-1.7-1-3.1h7.9v-1.1c0-1.5-0.4-2.8-1.2-3.7c-0.8-0.9-2-1.4-3.4-1.4c-1.5,0-2.7,0.5-3.6,1.6
			c-0.9,1.1-1.4,2.5-1.4,4.4c0,1.8,0.5,3.3,1.5,4.3C790,492.1,791.4,492.6,793.1,492.6z M790.4,483.1c0.5-0.6,1.3-0.9,2.2-0.9
			c0.9,0,1.6,0.3,2.1,0.9c0.5,0.6,0.7,1.4,0.7,2.5h-6C789.5,484.5,789.9,483.7,790.4,483.1z"/>
		<path class="st24" d="M737.1,486.4c0-1.5,0.3-2.5,0.8-3.2c0.6-0.6,1.4-1,2.6-1c0.9,0,1.6,0.2,2,0.7c0.4,0.5,0.6,1.2,0.6,2.1v7.4
			h1.7v-7.4c0-1.5-0.3-2.5-1-3.2c-0.7-0.7-1.7-1-3.1-1c-0.8,0-1.5,0.2-2.1,0.5c-0.6,0.3-1.1,0.7-1.5,1.3h-0.1l-0.3-1.6h-1.4v11.4
			h1.7V486.4z"/>
		<path class="st24" d="M860.8,479c0.3,0,0.5-0.1,0.7-0.3c0.2-0.2,0.3-0.5,0.3-0.9c0-0.4-0.1-0.7-0.3-0.9c-0.2-0.2-0.4-0.3-0.7-0.3
			c-0.3,0-0.5,0.1-0.7,0.3c-0.2,0.2-0.3,0.5-0.3,0.9c0,0.4,0.1,0.7,0.3,0.9C860.3,478.9,860.5,479,860.8,479z"/>
		<path class="st24" d="M749.1,486.1c0.4,0.3,1.2,0.6,2.3,1c1.1,0.4,1.9,0.8,2.3,1.1c0.4,0.3,0.6,0.7,0.6,1.1c0,0.6-0.2,1-0.7,1.3
			c-0.5,0.3-1.2,0.4-2.1,0.4c-0.6,0-1.2-0.1-1.8-0.2c-0.6-0.2-1.2-0.4-1.8-0.7v1.6c0.8,0.5,2,0.7,3.5,0.7c1.4,0,2.5-0.3,3.3-0.9
			c0.8-0.6,1.2-1.4,1.2-2.5c0-0.8-0.2-1.4-0.7-1.9c-0.5-0.5-1.4-1-2.7-1.5c-1-0.4-1.7-0.6-2-0.8c-0.3-0.2-0.6-0.4-0.8-0.6
			c-0.2-0.2-0.2-0.5-0.2-0.8c0-0.5,0.2-0.8,0.6-1.1c0.4-0.3,1-0.4,1.9-0.4c0.9,0,2,0.2,3.1,0.7l0.6-1.4c-1.2-0.5-2.4-0.7-3.6-0.7
			c-1.3,0-2.4,0.3-3.1,0.8c-0.8,0.5-1.1,1.3-1.1,2.2c0,0.5,0.1,1,0.3,1.3C748.3,485.5,748.6,485.8,749.1,486.1z"/>
		<path class="st24" d="M879.3,479c0.3,0,0.5-0.1,0.7-0.3c0.2-0.2,0.3-0.5,0.3-0.9c0-0.4-0.1-0.7-0.3-0.9c-0.2-0.2-0.4-0.3-0.7-0.3
			c-0.3,0-0.5,0.1-0.7,0.3c-0.2,0.2-0.3,0.5-0.3,0.9c0,0.4,0.1,0.7,0.3,0.9C878.7,478.9,879,479,879.3,479z"/>
		<rect x="957.1" y="481" class="st24" width="1.7" height="11.4"/>
		<path class="st24" d="M958,479c0.3,0,0.5-0.1,0.7-0.3c0.2-0.2,0.3-0.5,0.3-0.9c0-0.4-0.1-0.7-0.3-0.9c-0.2-0.2-0.4-0.3-0.7-0.3
			c-0.3,0-0.5,0.1-0.7,0.3c-0.2,0.2-0.3,0.5-0.3,0.9c0,0.4,0.1,0.7,0.3,0.9C957.5,478.9,957.7,479,958,479z"/>
		<path class="st24" d="M416.5,518.7L416.5,518.7l-4.9-12.6h-2.7v15.2h1.6v-9.7c0-1.5-0.1-2.7-0.1-3.8h0.1l5.2,13.5h1.4l5.2-13.5
			h0.1c-0.1,1.3-0.1,2.5-0.1,3.7v9.8h1.8v-15.2h-2.6L416.5,518.7z"/>
		<path class="st24" d="M944.6,492.6c0.8,0,1.4-0.1,2-0.2c0.5-0.1,1.1-0.3,1.7-0.6v-1.5c-1.2,0.5-2.4,0.8-3.6,0.8
			c-1.2,0-2.1-0.3-2.7-1c-0.6-0.7-1-1.7-1-3.1h7.9v-1.1c0-1.5-0.4-2.8-1.2-3.7c-0.8-0.9-2-1.4-3.4-1.4c-1.5,0-2.7,0.5-3.6,1.6
			c-0.9,1.1-1.4,2.5-1.4,4.4c0,1.8,0.5,3.3,1.5,4.3C941.6,492.1,942.9,492.6,944.6,492.6z M941.9,483.1c0.5-0.6,1.3-0.9,2.2-0.9
			c0.9,0,1.6,0.3,2.1,0.9c0.5,0.6,0.7,1.4,0.7,2.5h-6C941.1,484.5,941.4,483.7,941.9,483.1z"/>
		<rect x="904.1" y="481" class="st24" width="1.7" height="11.4"/>
		<path class="st24" d="M905,479c0.3,0,0.5-0.1,0.7-0.3c0.2-0.2,0.3-0.5,0.3-0.9c0-0.4-0.1-0.7-0.3-0.9c-0.2-0.2-0.4-0.3-0.7-0.3
			c-0.3,0-0.5,0.1-0.7,0.3c-0.2,0.2-0.3,0.5-0.3,0.9c0,0.4,0.1,0.7,0.3,0.9C904.4,478.9,904.7,479,905,479z"/>
		<rect x="735.2" y="505.2" class="st24" width="1.7" height="16.2"/>
		<rect x="878.4" y="481" class="st24" width="1.7" height="11.4"/>
		<path class="st24" d="M689.5,519.2c-0.2,0.2-0.3,0.6-0.3,1c0,0.5,0.1,0.9,0.3,1.1c0.2,0.2,0.5,0.3,0.9,0.3c0.4,0,0.7-0.1,0.9-0.4
			c0.2-0.2,0.3-0.6,0.3-1c0-0.5-0.1-0.8-0.3-1c-0.2-0.2-0.5-0.4-0.9-0.4C690,518.9,689.7,519,689.5,519.2z"/>
		<path class="st24" d="M583.5,511.3c0.3,0,0.7,0,1.2,0.1c0.4,0.1,0.9,0.2,1.2,0.4l0.5-1.5c-0.3-0.2-0.7-0.3-1.3-0.4
			c-0.5-0.1-1.1-0.2-1.6-0.2c-1.7,0-3,0.5-3.9,1.6c-0.9,1-1.4,2.5-1.4,4.4c0,1.9,0.5,3.3,1.4,4.3c0.9,1,2.2,1.5,3.8,1.5
			c1.2,0,2.1-0.2,2.9-0.6v-1.5c-1,0.4-2,0.6-2.9,0.6c-1.1,0-1.9-0.4-2.5-1.1c-0.6-0.7-0.8-1.8-0.8-3.2
			C580,512.8,581.2,511.3,583.5,511.3z"/>
		<path class="st24" d="M497.2,479c0.3,0,0.5-0.1,0.7-0.3c0.2-0.2,0.3-0.5,0.3-0.9c0-0.4-0.1-0.7-0.3-0.9c-0.2-0.2-0.4-0.3-0.7-0.3
			c-0.3,0-0.5,0.1-0.7,0.3c-0.2,0.2-0.3,0.5-0.3,0.9c0,0.4,0.1,0.7,0.3,0.9C496.7,478.9,496.9,479,497.2,479z"/>
		<polygon class="st24" points="435.6,490.8 428.9,490.8 428.9,477.2 427.1,477.2 427.1,492.4 435.6,492.4 		"/>
		<path class="st24" d="M578.3,491.9c0.8,0.5,1.7,0.7,2.7,0.7c1.7,0,2.9-0.5,3.9-1.6c0.9-1,1.4-2.5,1.4-4.4c0-1.8-0.5-3.2-1.4-4.3
			c-0.9-1.1-2.2-1.6-3.8-1.6c-1.6,0-2.9,0.5-3.9,1.6c-0.9,1-1.4,2.5-1.4,4.3c0,1.2,0.2,2.2,0.6,3.1
			C576.9,490.7,577.5,491.4,578.3,491.9z M578.5,483.4c0.6-0.7,1.4-1.1,2.6-1.1c1.1,0,2,0.4,2.6,1.1c0.6,0.8,0.9,1.9,0.9,3.3
			c0,1.5-0.3,2.6-0.9,3.3c-0.6,0.8-1.4,1.1-2.6,1.1c-1.1,0-2-0.4-2.6-1.1c-0.6-0.8-0.9-1.9-0.9-3.3
			C577.6,485.2,577.9,484.1,578.5,483.4z"/>
		<path class="st24" d="M567.5,492.6c1.6,0,2.8-0.6,3.6-1.7h0.1l0.2,1.5h1.4v-16.2h-1.7v4.6l0,0.8l0.1,0.8h-0.1
			c-0.8-1.1-2-1.7-3.6-1.7c-1.5,0-2.6,0.5-3.5,1.6c-0.8,1-1.2,2.5-1.2,4.4c0,1.9,0.4,3.3,1.2,4.4C564.8,492.1,566,492.6,567.5,492.6
			z M565.4,483.4c0.5-0.8,1.3-1.2,2.3-1.2c1.2,0,2,0.3,2.6,1c0.5,0.7,0.8,1.8,0.8,3.5v0.4c0,1.4-0.3,2.5-0.8,3.1
			c-0.5,0.6-1.4,1-2.6,1c-1,0-1.8-0.4-2.4-1.1c-0.5-0.7-0.8-1.8-0.8-3.3C564.6,485.3,564.8,484.2,565.4,483.4z"/>
		<path class="st24" d="M447.5,516c0,1.5-0.3,2.5-0.8,3.2c-0.6,0.7-1.4,1-2.6,1c-0.9,0-1.6-0.2-2-0.7c-0.4-0.5-0.6-1.2-0.6-2.1V510
			h-1.7v7.5c0,1.4,0.3,2.5,1,3.2c0.7,0.7,1.7,1,3.1,1c0.8,0,1.5-0.2,2.1-0.4c0.6-0.3,1.1-0.7,1.5-1.3h0.1l0.3,1.5h1.4V510h-1.7V516z
			"/>
		<path class="st24" d="M432.2,509.8c-0.7,0-1.3,0.1-2,0.3c-0.7,0.2-1.3,0.4-1.8,0.7l0.5,1.3c1.2-0.6,2.3-0.9,3.2-0.9
			c0.8,0,1.5,0.2,1.8,0.6c0.4,0.4,0.6,1.1,0.6,2v0.7l-1.9,0.1c-3.7,0.1-5.5,1.3-5.5,3.6c0,1.1,0.3,1.9,1,2.5
			c0.6,0.6,1.5,0.9,2.7,0.9c0.8,0,1.5-0.1,2.1-0.4c0.6-0.3,1.1-0.7,1.7-1.5h0.1l0.3,1.6h1.3v-7.8c0-1.3-0.3-2.3-1-2.9
			C434.6,510.1,433.6,509.8,432.2,509.8z M434.5,516.8c0,1.1-0.3,1.9-0.9,2.5c-0.6,0.6-1.5,0.9-2.5,0.9c-0.7,0-1.2-0.2-1.6-0.5
			c-0.4-0.3-0.6-0.8-0.6-1.4c0-0.8,0.3-1.4,0.9-1.8c0.6-0.4,1.6-0.6,3-0.6l1.7-0.1V516.8z"/>
		<path class="st24" d="M716.6,510v7.5c0,1.4,0.3,2.5,1,3.2c0.7,0.7,1.7,1,3.1,1c0.8,0,1.5-0.2,2.1-0.4c0.6-0.3,1.1-0.7,1.5-1.3h0.1
			l0.2,1.5h1.4V510h-1.7v6c0,1.5-0.3,2.5-0.8,3.2c-0.6,0.7-1.4,1-2.6,1c-0.9,0-1.6-0.2-2-0.7c-0.4-0.5-0.6-1.2-0.6-2.1V510H716.6z"
			/>
		<path class="st24" d="M442.4,492.6c1.6,0,2.9-0.5,3.9-1.6c0.9-1,1.4-2.5,1.4-4.4c0-1.8-0.5-3.2-1.4-4.3c-0.9-1.1-2.2-1.6-3.8-1.6
			c-1.6,0-2.9,0.5-3.9,1.6c-0.9,1-1.4,2.5-1.4,4.3c0,1.2,0.2,2.2,0.6,3.1c0.4,0.9,1,1.6,1.8,2.1
			C440.5,492.4,441.4,492.6,442.4,492.6z M439.9,483.4c0.6-0.7,1.4-1.1,2.6-1.1c1.1,0,2,0.4,2.6,1.1c0.6,0.8,0.9,1.9,0.9,3.3
			c0,1.5-0.3,2.6-0.9,3.3c-0.6,0.8-1.4,1.1-2.6,1.1c-1.1,0-2-0.4-2.6-1.1c-0.6-0.8-0.9-1.9-0.9-3.3
			C439,485.2,439.3,484.1,439.9,483.4z"/>
		<path class="st24" d="M711.3,518.9L711.3,518.9l-8.4-12.7h-2v15.2h1.6v-8.7c0-1.2-0.1-2.6-0.2-4.1h0.1l8.3,12.8h2v-15.2h-1.7v8.7
			c0,0.4,0,1.2,0.1,2.2C711.3,518.1,711.3,518.7,711.3,518.9z"/>
		<path class="st24" d="M702.8,492.6c0.3-0.9,0.6-1.7,0.8-2.4l-0.2-0.2h-1.9c-0.1,0.6-0.3,1.5-0.5,2.5c-0.2,1.1-0.4,2-0.6,2.7h1.3
			C702.1,494.3,702.4,493.5,702.8,492.6z"/>
		<path class="st24" d="M716.9,492.6c1.2,0,2.1-0.2,2.9-0.6v-1.5c-1,0.4-2,0.6-2.9,0.6c-1.1,0-1.9-0.4-2.5-1.1
			c-0.6-0.7-0.8-1.8-0.8-3.2c0-3,1.2-4.4,3.5-4.4c0.3,0,0.7,0.1,1.2,0.2c0.5,0.1,0.9,0.2,1.2,0.4l0.5-1.5c-0.3-0.2-0.7-0.3-1.3-0.4
			c-0.5-0.1-1.1-0.2-1.6-0.2c-1.7,0-3,0.5-3.9,1.6c-0.9,1-1.4,2.5-1.4,4.4c0,1.9,0.5,3.3,1.4,4.3C714,492.1,715.3,492.6,716.9,492.6
			z"/>
		<path class="st24" d="M653.2,492.6c0.8,0,1.5-0.1,2.1-0.4c0.6-0.3,1.1-0.7,1.7-1.5h0.1l0.3,1.6h1.3v-7.8c0-1.3-0.3-2.3-1-2.9
			c-0.7-0.6-1.7-0.9-3-0.9c-0.7,0-1.3,0.1-2,0.3c-0.7,0.2-1.3,0.4-1.8,0.7l0.5,1.3c1.2-0.6,2.3-0.9,3.2-0.9c0.8,0,1.5,0.2,1.8,0.6
			c0.4,0.4,0.6,1.1,0.6,2v0.7l-1.9,0.1c-3.7,0.1-5.5,1.3-5.5,3.6c0,1.1,0.3,1.9,1,2.5C651.2,492.3,652.1,492.6,653.2,492.6z
			 M652.3,487.5c0.6-0.4,1.6-0.6,3-0.6l1.7-0.1v1c0,1.1-0.3,1.9-0.9,2.5c-0.6,0.6-1.5,0.9-2.5,0.9c-0.7,0-1.2-0.2-1.6-0.5
			c-0.4-0.3-0.6-0.8-0.6-1.4C651.4,488.5,651.7,487.9,652.3,487.5z"/>
		<path class="st24" d="M455.8,482.3c0.4,0,0.8,0.1,1.3,0.2l0.2-1.6c-0.4-0.1-0.9-0.1-1.4-0.1c-0.7,0-1.4,0.2-2,0.6
			c-0.6,0.4-1.1,1-1.5,1.7h-0.1l-0.2-2.1h-1.4v11.4h1.7v-6.1c0-1.1,0.3-2,1-2.8C454.1,482.7,454.9,482.3,455.8,482.3z"/>
		<path class="st24" d="M664,486.4c0-1.5,0.3-2.5,0.8-3.2c0.5-0.6,1.3-1,2.4-1c0.8,0,1.4,0.2,1.8,0.7c0.4,0.5,0.6,1.1,0.6,2v7.4h1.7
			V486c0-1.3,0.3-2.2,0.8-2.8c0.5-0.6,1.3-0.9,2.4-0.9c0.8,0,1.4,0.2,1.8,0.7c0.4,0.5,0.6,1.1,0.6,2v7.4h1.7v-7.4
			c0-1.5-0.3-2.5-1-3.2c-0.6-0.7-1.6-1-2.9-1c-0.8,0-1.6,0.2-2.2,0.5c-0.6,0.3-1.1,0.8-1.5,1.4h-0.1c-0.5-1.3-1.7-1.9-3.5-1.9
			c-0.7,0-1.4,0.2-2,0.5c-0.6,0.3-1.1,0.7-1.4,1.3H664l-0.3-1.6h-1.4v11.4h1.7V486.4z"/>
		<path class="st24" d="M682.1,518.1c0,2.3,1.1,3.5,3.3,3.5c0.3,0,0.6,0,1-0.1c0.4-0.1,0.6-0.1,0.8-0.2V520c-0.2,0-0.4,0.1-0.7,0.1
			c-0.3,0-0.6,0.1-0.9,0.1c-0.6,0-1-0.2-1.3-0.5c-0.3-0.4-0.5-0.9-0.5-1.6v-6.7h3.3V510h-3.3v-2.6h-1l-0.7,2.4l-1.6,0.7v0.8h1.6
			V518.1z"/>
		<path class="st24" d="M686.9,492.6c0.8,0,1.4-0.1,2-0.2c0.5-0.1,1.1-0.3,1.7-0.6v-1.5c-1.2,0.5-2.4,0.8-3.6,0.8
			c-1.2,0-2.1-0.3-2.7-1c-0.6-0.7-1-1.7-1-3.1h7.9v-1.1c0-1.5-0.4-2.8-1.2-3.7c-0.8-0.9-2-1.4-3.4-1.4c-1.5,0-2.7,0.5-3.6,1.6
			c-0.9,1.1-1.4,2.5-1.4,4.4c0,1.8,0.5,3.3,1.5,4.3C683.9,492.1,685.3,492.6,686.9,492.6z M684.3,483.1c0.5-0.6,1.3-0.9,2.2-0.9
			c0.9,0,1.6,0.3,2.1,0.9c0.5,0.6,0.7,1.4,0.7,2.5h-6C683.4,484.5,683.7,483.7,684.3,483.1z"/>
		<rect x="589.3" y="476.2" class="st24" width="1.7" height="16.2"/>
		<path class="st24" d="M593.7,509.8c-1.6,0-2.9,0.5-3.9,1.6c-0.9,1-1.4,2.5-1.4,4.3c0,1.2,0.2,2.3,0.6,3.1c0.4,0.9,1,1.6,1.8,2.1
			c0.8,0.5,1.7,0.7,2.7,0.7c1.7,0,2.9-0.5,3.9-1.6c0.9-1,1.4-2.5,1.4-4.4c0-1.8-0.5-3.3-1.4-4.3
			C596.5,510.3,595.3,509.8,593.7,509.8z M596.2,519c-0.6,0.8-1.4,1.1-2.6,1.1c-1.1,0-2-0.4-2.6-1.1c-0.6-0.8-0.9-1.9-0.9-3.3
			c0-1.5,0.3-2.6,0.9-3.3c0.6-0.7,1.4-1.1,2.6-1.1c1.1,0,2,0.4,2.6,1.1c0.6,0.8,0.9,1.9,0.9,3.3C597.1,517.2,596.8,518.3,596.2,519z
			"/>
		<path class="st24" d="M834.6,509.8c-1.6,0-2.9,0.5-3.9,1.6c-0.9,1-1.4,2.5-1.4,4.3c0,1.2,0.2,2.3,0.6,3.1c0.4,0.9,1,1.6,1.8,2.1
			c0.8,0.5,1.7,0.7,2.7,0.7c1.7,0,2.9-0.5,3.9-1.6c0.9-1,1.4-2.5,1.4-4.4c0-1.8-0.5-3.3-1.4-4.3
			C837.5,510.3,836.2,509.8,834.6,509.8z M837.2,519c-0.6,0.8-1.4,1.1-2.6,1.1c-1.1,0-2-0.4-2.6-1.1c-0.6-0.8-0.9-1.9-0.9-3.3
			c0-1.5,0.3-2.6,0.9-3.3c0.6-0.7,1.4-1.1,2.6-1.1c1.1,0,2,0.4,2.6,1.1c0.6,0.8,0.9,1.9,0.9,3.3C838.1,517.2,837.8,518.3,837.2,519z
			"/>
		<rect x="824.6" y="510" class="st24" width="1.7" height="11.4"/>
		<path class="st24" d="M839.3,480.8c-0.7,0-1.3,0.1-2,0.3c-0.7,0.2-1.3,0.4-1.8,0.7l0.5,1.3c1.2-0.6,2.3-0.9,3.2-0.9
			c0.8,0,1.5,0.2,1.8,0.6c0.4,0.4,0.6,1.1,0.6,2v0.7l-1.9,0.1c-3.7,0.1-5.5,1.3-5.5,3.6c0,1.1,0.3,1.9,1,2.5
			c0.6,0.6,1.5,0.9,2.7,0.9c0.8,0,1.5-0.1,2.1-0.4c0.6-0.3,1.1-0.7,1.7-1.5h0.1l0.3,1.6h1.3v-7.8c0-1.3-0.3-2.3-1-2.9
			C841.7,481.1,840.7,480.8,839.3,480.8z M841.6,487.8c0,1.1-0.3,1.9-0.9,2.5c-0.6,0.6-1.5,0.9-2.5,0.9c-0.7,0-1.2-0.2-1.6-0.5
			c-0.4-0.3-0.6-0.8-0.6-1.4c0-0.8,0.3-1.4,0.9-1.8c0.6-0.4,1.6-0.6,3-0.6l1.7-0.1V487.8z"/>
		<path class="st24" d="M883,509.8c-0.8,0-1.6,0.2-2.2,0.5c-0.6,0.3-1.1,0.8-1.5,1.4h-0.1c-0.5-1.3-1.7-1.9-3.5-1.9
			c-0.7,0-1.4,0.2-2,0.5c-0.6,0.3-1.1,0.7-1.4,1.3h-0.1L872,510h-1.4v11.4h1.7v-6c0-1.5,0.3-2.5,0.8-3.2c0.5-0.7,1.3-1,2.4-1
			c0.8,0,1.4,0.2,1.8,0.7c0.4,0.5,0.6,1.1,0.6,2v7.4h1.7V515c0-1.3,0.3-2.2,0.8-2.8c0.5-0.6,1.3-0.9,2.4-0.9c0.8,0,1.4,0.2,1.8,0.7
			c0.4,0.5,0.6,1.1,0.6,2v7.4h1.7V514c0-1.5-0.3-2.5-1-3.2C885.2,510.1,884.2,509.8,883,509.8z"/>
		<path class="st24" d="M863,509.8c-1.5,0-2.7,0.5-3.6,1.6c-0.9,1.1-1.4,2.5-1.4,4.4c0,1.8,0.5,3.3,1.5,4.3c1,1,2.3,1.5,4,1.5
			c0.8,0,1.4-0.1,2-0.2c0.5-0.1,1.1-0.3,1.7-0.6v-1.5c-1.2,0.5-2.4,0.8-3.6,0.8c-1.2,0-2.1-0.3-2.7-1c-0.6-0.7-1-1.7-1-3h7.9v-1.1
			c0-1.5-0.4-2.8-1.2-3.7C865.5,510.3,864.4,509.8,863,509.8z M859.8,514.6c0.1-1.1,0.4-1.9,1-2.5c0.5-0.6,1.3-0.9,2.2-0.9
			c0.9,0,1.6,0.3,2.1,0.9c0.5,0.6,0.7,1.4,0.7,2.5H859.8z"/>
		<path class="st24" d="M874.1,491c0.8-1,1.3-2.5,1.3-4.4c0-1.9-0.4-3.3-1.2-4.4c-0.8-1-2-1.6-3.5-1.6c-0.8,0-1.4,0.1-2,0.4
			c-0.6,0.3-1.1,0.7-1.6,1.4H867l-0.2-1.6h-1.4v16.5h1.7v-4.7c0-0.6,0-1.2-0.1-1.9h0.1c0.4,0.6,0.9,1,1.5,1.3c0.6,0.3,1.3,0.4,2,0.4
			C872.1,492.6,873.3,492.1,874.1,491z M867.9,490.1c-0.5-0.7-0.8-1.8-0.8-3.4v-0.4c0-1.4,0.3-2.4,0.8-3.1c0.5-0.6,1.4-1,2.5-1
			c1,0,1.8,0.4,2.4,1.1c0.6,0.8,0.8,1.8,0.8,3.3c0,1.4-0.3,2.5-0.8,3.3c-0.6,0.8-1.3,1.2-2.3,1.2
			C869.3,491.1,868.4,490.8,867.9,490.1z"/>
		<path class="st24" d="M852.3,514.9c-1-0.4-1.7-0.7-2-0.8c-0.3-0.2-0.6-0.4-0.8-0.6c-0.2-0.2-0.2-0.5-0.2-0.8
			c0-0.5,0.2-0.8,0.6-1.1c0.4-0.3,1-0.4,1.9-0.4c0.9,0,2,0.2,3.1,0.7l0.6-1.4c-1.2-0.5-2.4-0.8-3.6-0.8c-1.3,0-2.4,0.3-3.1,0.8
			c-0.8,0.5-1.1,1.3-1.1,2.2c0,0.5,0.1,1,0.3,1.3c0.2,0.4,0.5,0.7,1,1c0.4,0.3,1.2,0.6,2.3,1c1.1,0.4,1.9,0.8,2.3,1.1
			c0.4,0.3,0.6,0.7,0.6,1.1c0,0.6-0.2,1-0.7,1.3c-0.5,0.3-1.2,0.4-2.1,0.4c-0.6,0-1.2-0.1-1.8-0.2c-0.6-0.2-1.2-0.4-1.8-0.7v1.6
			c0.8,0.5,2,0.7,3.5,0.7c1.4,0,2.5-0.3,3.3-0.9c0.8-0.6,1.2-1.4,1.2-2.5c0-0.8-0.2-1.4-0.7-1.9
			C854.6,515.9,853.7,515.4,852.3,514.9z"/>
		<path class="st24" d="M854.6,480.8l0,0.8l0.1,0.8h-0.1c-0.8-1.1-2-1.7-3.6-1.7c-1.5,0-2.6,0.5-3.5,1.6c-0.8,1-1.2,2.5-1.2,4.4
			c0,1.9,0.4,3.3,1.2,4.4c0.8,1,2,1.5,3.5,1.5c1.6,0,2.8-0.6,3.6-1.7h0.1l0.2,1.5h1.4v-16.2h-1.7V480.8z M854.6,487.1
			c0,1.4-0.3,2.5-0.8,3.1c-0.5,0.6-1.4,1-2.6,1c-1,0-1.8-0.4-2.4-1.1c-0.5-0.7-0.8-1.8-0.8-3.3c0-1.4,0.3-2.5,0.8-3.3
			c0.5-0.8,1.3-1.2,2.3-1.2c1.2,0,2,0.3,2.6,1c0.5,0.7,0.8,1.8,0.8,3.5V487.1z"/>
		<path class="st24" d="M826.2,547.9c-0.4,0-0.7,0.1-0.9,0.4c-0.2,0.2-0.3,0.6-0.3,1.1c0,0.5,0.1,0.9,0.3,1.1
			c0.2,0.2,0.5,0.3,0.9,0.3c0.4,0,0.7-0.1,0.9-0.4c0.2-0.2,0.3-0.6,0.3-1c0-0.5-0.1-0.8-0.3-1.1C827,548,826.6,547.9,826.2,547.9z"
			/>
		<path class="st24" d="M788.2,545c0,1.5-0.3,2.5-0.8,3.2c-0.6,0.7-1.4,1-2.6,1c-0.9,0-1.6-0.2-2-0.7c-0.4-0.5-0.6-1.2-0.6-2.1V539
			h-1.7v7.5c0,1.4,0.3,2.5,1,3.2c0.7,0.7,1.7,1,3.1,1c0.8,0,1.5-0.1,2.1-0.4c0.6-0.3,1.1-0.7,1.5-1.3h0.1l0.2,1.5h1.4V539h-1.7V545z
			"/>
		<path class="st24" d="M780.8,489.1c0,2.3,1.1,3.5,3.3,3.5c0.3,0,0.6,0,1-0.1c0.4-0.1,0.6-0.1,0.8-0.2V491c-0.2,0-0.4,0.1-0.7,0.1
			c-0.3,0-0.6,0.1-0.9,0.1c-0.6,0-1-0.2-1.3-0.5c-0.3-0.4-0.5-0.9-0.5-1.6v-6.7h3.3V481h-3.3v-2.6h-1l-0.7,2.4l-1.6,0.7v0.8h1.6
			V489.1z"/>
		<path class="st24" d="M784.2,521.6c1.6,0,2.8-0.6,3.6-1.7h0.1l0.2,1.5h1.4v-16.2h-1.7v4.6l0,0.8l0.1,0.8h-0.1
			c-0.8-1.1-2-1.7-3.6-1.7c-1.5,0-2.6,0.5-3.5,1.6c-0.8,1-1.3,2.5-1.3,4.4c0,1.9,0.4,3.3,1.2,4.3
			C781.5,521.1,782.7,521.6,784.2,521.6z M782.1,512.4c0.5-0.8,1.3-1.2,2.3-1.2c1.2,0,2,0.3,2.6,1c0.5,0.7,0.8,1.8,0.8,3.5v0.4
			c0,1.4-0.3,2.5-0.8,3.1c-0.5,0.6-1.4,1-2.6,1c-1,0-1.8-0.4-2.4-1.1c-0.5-0.7-0.8-1.8-0.8-3.3C781.3,514.3,781.5,513.2,782.1,512.4
			z"/>
		<path class="st24" d="M775.2,482.3c0.3,0,0.7,0.1,1.2,0.2c0.4,0.1,0.9,0.2,1.2,0.4l0.5-1.5c-0.3-0.2-0.7-0.3-1.3-0.4
			c-0.5-0.1-1.1-0.2-1.6-0.2c-1.7,0-3,0.5-3.9,1.6c-0.9,1-1.4,2.5-1.4,4.4c0,1.9,0.5,3.3,1.4,4.3c0.9,1,2.2,1.5,3.8,1.5
			c1.2,0,2.1-0.2,2.9-0.6v-1.5c-1,0.4-2,0.6-2.9,0.6c-1.1,0-1.9-0.4-2.5-1.1c-0.6-0.7-0.8-1.8-0.8-3.2
			C771.7,483.8,772.9,482.3,775.2,482.3z"/>
		<path class="st24" d="M797.9,538.8c-0.7,0-1.3,0.1-2,0.3c-0.7,0.2-1.3,0.4-1.8,0.7l0.5,1.3c1.2-0.6,2.3-0.9,3.2-0.9
			c0.8,0,1.5,0.2,1.8,0.6c0.4,0.4,0.6,1.1,0.6,2v0.7l-1.9,0.1c-3.7,0.1-5.5,1.3-5.5,3.6c0,1.1,0.3,1.9,1,2.5
			c0.6,0.6,1.5,0.9,2.7,0.9c0.8,0,1.6-0.1,2.1-0.4c0.6-0.3,1.1-0.7,1.7-1.5h0.1l0.3,1.6h1.3v-7.8c0-1.3-0.3-2.3-1-2.9
			C800.2,539.1,799.2,538.8,797.9,538.8z M800.2,545.9c0,1.1-0.3,1.9-0.9,2.5c-0.6,0.6-1.5,0.9-2.5,0.9c-0.7,0-1.2-0.2-1.6-0.5
			c-0.4-0.3-0.6-0.8-0.6-1.4c0-0.8,0.3-1.4,0.9-1.8c0.6-0.4,1.6-0.6,3-0.6l1.7-0.1V545.9z"/>
		<path class="st24" d="M817.8,538.8c-0.8,0-1.6,0.2-2.2,0.5c-0.6,0.4-1.1,0.8-1.5,1.4h-0.1c-0.5-1.3-1.7-1.9-3.5-1.9
			c-0.7,0-1.4,0.2-2,0.5c-0.6,0.3-1.1,0.7-1.4,1.3h-0.1l-0.3-1.6h-1.4v11.4h1.7v-6c0-1.5,0.3-2.5,0.8-3.2c0.5-0.6,1.3-1,2.4-1
			c0.8,0,1.4,0.2,1.8,0.7c0.4,0.5,0.6,1.1,0.6,2v7.4h1.7v-6.4c0-1.3,0.3-2.2,0.8-2.8c0.5-0.6,1.3-0.9,2.4-0.9c0.8,0,1.4,0.2,1.8,0.7
			c0.4,0.5,0.6,1.1,0.6,2v7.4h1.7V543c0-1.5-0.3-2.5-1-3.2C820.1,539.1,819.1,538.8,817.8,538.8z"/>
		<path class="st24" d="M808.5,515.7c0-1.8-0.5-3.3-1.4-4.3c-0.9-1.1-2.2-1.6-3.8-1.6c-1.6,0-2.9,0.5-3.9,1.6
			c-0.9,1-1.4,2.5-1.4,4.3c0,1.2,0.2,2.3,0.6,3.1c0.4,0.9,1,1.6,1.8,2.1c0.8,0.5,1.7,0.7,2.7,0.7c1.7,0,2.9-0.5,3.9-1.6
			C808.1,519,808.5,517.6,808.5,515.7z M805.9,519c-0.6,0.8-1.4,1.1-2.6,1.1c-1.1,0-2-0.4-2.6-1.1c-0.6-0.8-0.9-1.9-0.9-3.3
			c0-1.5,0.3-2.6,0.9-3.3c0.6-0.7,1.4-1.1,2.6-1.1c1.1,0,2,0.4,2.6,1.1c0.6,0.8,0.9,1.9,0.9,3.3C806.8,517.2,806.5,518.3,805.9,519z
			"/>
		<path class="st24" d="M827.1,482.5l0.2-1.6c-0.4-0.1-0.9-0.1-1.4-0.1c-0.7,0-1.4,0.2-2,0.6c-0.6,0.4-1.1,1-1.5,1.7h-0.1l-0.2-2.1
			h-1.4v11.4h1.7v-6.1c0-1.1,0.3-2,1-2.8c0.7-0.7,1.4-1.1,2.4-1.1C826.2,482.3,826.7,482.4,827.1,482.5z"/>
		<path class="st24" d="M907.8,509.8c-1.5,0-2.7,0.5-3.6,1.6c-0.9,1.1-1.4,2.5-1.4,4.4c0,1.8,0.5,3.3,1.5,4.3c1,1,2.3,1.5,4,1.5
			c0.8,0,1.4-0.1,2-0.2c0.5-0.1,1.1-0.3,1.7-0.6v-1.5c-1.2,0.5-2.4,0.8-3.6,0.8c-1.2,0-2.1-0.3-2.7-1c-0.6-0.7-1-1.7-1-3h7.9v-1.1
			c0-1.5-0.4-2.8-1.2-3.7C910.4,510.3,909.2,509.8,907.8,509.8z M904.6,514.6c0.1-1.1,0.4-1.9,1-2.5c0.5-0.6,1.3-0.9,2.2-0.9
			c0.9,0,1.6,0.3,2.1,0.9c0.5,0.6,0.7,1.4,0.7,2.5H904.6z"/>
		<path class="st24" d="M967.8,491c-0.2,0-0.4,0.1-0.7,0.1c-0.3,0-0.6,0.1-0.9,0.1c-0.6,0-1-0.2-1.3-0.5c-0.3-0.4-0.5-0.9-0.5-1.6
			v-6.7h3.3V481h-3.3v-2.6h-1l-0.7,2.4l-1.6,0.7v0.8h1.6v6.8c0,2.3,1.1,3.5,3.3,3.5c0.3,0,0.6,0,1-0.1c0.4-0.1,0.6-0.1,0.8-0.2V491z
			"/>
		<rect x="951.7" y="476.2" class="st24" width="1.7" height="16.2"/>
		<path class="st24" d="M971,489.9c-0.4,0-0.7,0.1-0.9,0.4c-0.2,0.2-0.3,0.6-0.3,1c0,0.5,0.1,0.9,0.3,1.1c0.2,0.2,0.5,0.3,0.9,0.3
			c0.4,0,0.7-0.1,0.9-0.4c0.2-0.2,0.3-0.6,0.3-1c0-0.5-0.1-0.8-0.3-1C971.7,490,971.4,489.9,971,489.9z"/>
		<path class="st24" d="M959.3,509.8c-1.6,0-2.9,0.5-3.9,1.6c-0.9,1-1.4,2.5-1.4,4.3c0,1.2,0.2,2.3,0.6,3.1c0.4,0.9,1,1.6,1.8,2.1
			c0.8,0.5,1.7,0.7,2.7,0.7c1.7,0,2.9-0.5,3.9-1.6c0.9-1,1.4-2.5,1.4-4.4c0-1.8-0.5-3.3-1.4-4.3
			C962.2,510.3,960.9,509.8,959.3,509.8z M961.8,519c-0.6,0.8-1.4,1.1-2.6,1.1c-1.1,0-2-0.4-2.6-1.1c-0.6-0.8-0.9-1.9-0.9-3.3
			c0-1.5,0.3-2.6,0.9-3.3c0.6-0.7,1.4-1.1,2.6-1.1c1.1,0,2,0.4,2.6,1.1c0.6,0.8,0.9,1.9,0.9,3.3C962.7,517.2,962.4,518.3,961.8,519z
			"/>
		<rect x="967.5" y="505.2" class="st24" width="1.7" height="16.2"/>
		<rect x="972.9" y="505.2" class="st24" width="1.7" height="16.2"/>
		<path class="st24" d="M979.2,505.8c-0.3,0-0.5,0.1-0.7,0.3c-0.2,0.2-0.3,0.5-0.3,0.9c0,0.4,0.1,0.7,0.3,0.9s0.4,0.3,0.7,0.3
			c0.3,0,0.5-0.1,0.7-0.3c0.2-0.2,0.3-0.5,0.3-0.9c0-0.4-0.1-0.7-0.3-0.9C979.7,505.9,979.5,505.8,979.2,505.8z"/>
		<path class="st24" d="M987.6,514.9c-1-0.4-1.7-0.7-2-0.8c-0.4-0.2-0.6-0.4-0.8-0.6c-0.2-0.2-0.2-0.5-0.2-0.8
			c0-0.5,0.2-0.8,0.6-1.1c0.4-0.3,1-0.4,1.9-0.4c0.9,0,2,0.2,3.1,0.7l0.6-1.4c-1.2-0.5-2.4-0.8-3.6-0.8c-1.3,0-2.4,0.3-3.1,0.8
			c-0.8,0.5-1.1,1.3-1.1,2.2c0,0.5,0.1,1,0.3,1.3c0.2,0.4,0.6,0.7,1,1c0.4,0.3,1.2,0.6,2.3,1c1.1,0.4,1.9,0.8,2.3,1.1
			c0.4,0.3,0.6,0.7,0.6,1.1c0,0.6-0.2,1-0.7,1.3c-0.5,0.3-1.2,0.4-2.1,0.4c-0.6,0-1.2-0.1-1.8-0.2c-0.6-0.2-1.2-0.4-1.8-0.7v1.6
			c0.9,0.5,2,0.7,3.5,0.7c1.4,0,2.5-0.3,3.3-0.9c0.8-0.6,1.2-1.4,1.2-2.5c0-0.8-0.2-1.4-0.7-1.9C989.9,515.9,989,515.4,987.6,514.9z
			"/>
		<rect x="978.3" y="510" class="st24" width="1.7" height="11.4"/>
		<path class="st24" d="M891.2,489.3c0-0.8-0.2-1.4-0.7-1.9c-0.5-0.5-1.4-1-2.7-1.5c-1-0.4-1.7-0.6-2-0.8c-0.3-0.2-0.6-0.4-0.8-0.6
			c-0.2-0.2-0.2-0.5-0.2-0.8c0-0.5,0.2-0.8,0.6-1.1c0.4-0.3,1-0.4,1.9-0.4c0.9,0,2,0.2,3.1,0.7l0.6-1.4c-1.2-0.5-2.4-0.7-3.6-0.7
			c-1.3,0-2.4,0.3-3.1,0.8c-0.8,0.5-1.1,1.3-1.1,2.2c0,0.5,0.1,1,0.3,1.3c0.2,0.4,0.5,0.7,1,1c0.4,0.3,1.2,0.6,2.3,1
			c1.1,0.4,1.9,0.8,2.3,1.1c0.4,0.3,0.6,0.7,0.6,1.1c0,0.6-0.2,1-0.7,1.3c-0.5,0.3-1.2,0.4-2.1,0.4c-0.6,0-1.2-0.1-1.8-0.2
			c-0.6-0.2-1.2-0.4-1.8-0.7v1.6c0.8,0.5,2,0.7,3.5,0.7c1.4,0,2.5-0.3,3.3-0.9C890.8,491.2,891.2,490.3,891.2,489.3z"/>
		<path class="st24" d="M917.3,485v7.4h1.7v-7.4c0-1.5-0.3-2.5-1-3.2c-0.7-0.7-1.7-1-3.1-1c-0.8,0-1.5,0.2-2.1,0.5
			c-0.6,0.3-1.1,0.7-1.5,1.3h-0.1l-0.3-1.6h-1.4v11.4h1.7v-6c0-1.5,0.3-2.5,0.8-3.2c0.6-0.6,1.4-1,2.6-1c0.9,0,1.6,0.2,2,0.7
			C917.1,483.4,917.3,484.1,917.3,485z"/>
		<path class="st24" d="M898.6,482.3c0.3,0,0.7,0.1,1.2,0.2c0.5,0.1,0.9,0.2,1.2,0.4l0.5-1.5c-0.3-0.2-0.7-0.3-1.3-0.4
			c-0.5-0.1-1.1-0.2-1.6-0.2c-1.7,0-3,0.5-3.9,1.6c-0.9,1-1.4,2.5-1.4,4.4c0,1.9,0.5,3.3,1.4,4.3c0.9,1,2.2,1.5,3.8,1.5
			c1.2,0,2.1-0.2,2.9-0.6v-1.5c-1,0.4-2,0.6-2.9,0.6c-1.1,0-1.9-0.4-2.5-1.1c-0.6-0.7-0.8-1.8-0.8-3.2
			C895.1,483.8,896.3,482.3,898.6,482.3z"/>
		<path class="st24" d="M772.5,509.8c-1.5,0-2.7,0.5-3.6,1.6c-0.9,1.1-1.4,2.5-1.4,4.4c0,1.8,0.5,3.3,1.5,4.3c1,1,2.3,1.5,4,1.5
			c0.8,0,1.4-0.1,2-0.2c0.5-0.1,1.1-0.3,1.7-0.6v-1.5c-1.2,0.5-2.4,0.8-3.6,0.8c-1.2,0-2.1-0.3-2.7-1c-0.6-0.7-1-1.7-1-3h7.9v-1.1
			c0-1.5-0.4-2.8-1.3-3.7C775.1,510.3,773.9,509.8,772.5,509.8z M769.3,514.6c0.1-1.1,0.4-1.9,1-2.5c0.5-0.6,1.3-0.9,2.2-0.9
			c0.9,0,1.6,0.3,2.1,0.9c0.5,0.6,0.7,1.4,0.7,2.5H769.3z"/>
		<path class="st24" d="M895.7,509.8c-0.8,0-1.4,0.1-2,0.4c-0.6,0.3-1.1,0.7-1.6,1.4H892l-0.2-1.6h-1.4v16.5h1.7v-4.7
			c0-0.6,0-1.2-0.1-1.9h0.1c0.4,0.6,0.9,1,1.5,1.3c0.6,0.3,1.3,0.4,2,0.4c1.5,0,2.6-0.5,3.5-1.6c0.8-1,1.3-2.5,1.3-4.4
			c0-1.9-0.4-3.3-1.2-4.3C898.4,510.3,897.2,509.8,895.7,509.8z M897.8,519c-0.6,0.8-1.3,1.2-2.3,1.2c-1.2,0-2-0.3-2.6-1
			c-0.5-0.7-0.8-1.8-0.8-3.4v-0.4c0-1.4,0.3-2.4,0.8-3.1c0.5-0.6,1.4-1,2.5-1c1,0,1.8,0.4,2.4,1.1c0.6,0.8,0.8,1.9,0.8,3.3
			C898.6,517.1,898.3,518.2,897.8,519z"/>
		<path class="st24" d="M926.4,480.8c-1.4,0-2.4,0.3-3.2,1c-0.7,0.7-1.1,1.6-1.1,2.9c0,0.8,0.2,1.4,0.6,2c0.4,0.6,0.9,1,1.4,1.2
			c-0.5,0.3-0.8,0.6-1,0.9c-0.2,0.3-0.3,0.7-0.3,1.1c0,0.4,0.1,0.7,0.3,1c0.2,0.3,0.4,0.5,0.7,0.6c-0.8,0.2-1.4,0.5-1.9,1
			c-0.4,0.5-0.7,1.1-0.7,1.8c0,1,0.4,1.8,1.2,2.3c0.8,0.6,2,0.8,3.5,0.8c1.9,0,3.4-0.3,4.4-1c1-0.7,1.5-1.6,1.5-2.9
			c0-1-0.3-1.7-1-2.3c-0.7-0.5-1.6-0.8-2.8-0.8h-2c-0.6,0-1.1-0.1-1.3-0.2c-0.3-0.1-0.4-0.4-0.4-0.7c0-0.6,0.4-1.1,1.1-1.5
			c0.3,0.1,0.6,0.1,1,0.1c1.3,0,2.4-0.3,3.1-1c0.8-0.7,1.1-1.6,1.1-2.7c0-0.5-0.1-0.9-0.2-1.3c-0.2-0.4-0.3-0.7-0.5-1l2.1-0.2V481
			H928C927.5,480.8,927,480.8,926.4,480.8z M925.3,492.1h2.1c1.1,0,1.8,0.1,2.2,0.4c0.4,0.2,0.6,0.7,0.6,1.3c0,0.7-0.3,1.3-1,1.8
			c-0.7,0.4-1.8,0.7-3.2,0.7c-1,0-1.7-0.2-2.2-0.5c-0.5-0.3-0.8-0.8-0.8-1.4c0-0.7,0.2-1.2,0.7-1.6
			C923.9,492.3,924.5,492.1,925.3,492.1z M928.8,484.6c0,1.6-0.8,2.5-2.5,2.5c-0.8,0-1.4-0.2-1.9-0.6c-0.4-0.4-0.7-1-0.7-1.8
			c0-0.9,0.2-1.5,0.7-1.9c0.4-0.4,1.1-0.7,1.9-0.7C928,482,928.8,482.9,928.8,484.6z"/>
		<path class="st24" d="M947.2,509.8c-0.8,0-1.6,0.2-2.2,0.5c-0.6,0.3-1.1,0.8-1.5,1.4h-0.1c-0.5-1.3-1.7-1.9-3.5-1.9
			c-0.7,0-1.4,0.2-2,0.5c-0.6,0.3-1.1,0.7-1.4,1.3h-0.1l-0.3-1.6h-1.4v11.4h1.7v-6c0-1.5,0.3-2.5,0.8-3.2c0.5-0.7,1.3-1,2.4-1
			c0.8,0,1.4,0.2,1.8,0.7c0.4,0.5,0.6,1.1,0.6,2v7.4h1.7V515c0-1.3,0.3-2.2,0.8-2.8c0.5-0.6,1.3-0.9,2.4-0.9c0.8,0,1.4,0.2,1.8,0.7
			c0.4,0.5,0.6,1.1,0.6,2v7.4h1.7V514c0-1.5-0.3-2.5-1-3.2C949.5,510.1,948.5,509.8,947.2,509.8z"/>
		<path class="st24" d="M924,518.9c-0.1,0.6-0.3,1.5-0.5,2.5c-0.2,1.1-0.4,2-0.6,2.7h1.3c0.4-0.8,0.7-1.6,1.1-2.6
			c0.3-0.9,0.6-1.7,0.8-2.4l-0.2-0.2H924z"/>
		<path class="st24" d="M918.6,510.4c-0.6,0.4-1.1,1-1.5,1.7H917l-0.2-2.1h-1.4v11.4h1.7v-6.1c0-1.1,0.3-2.1,1-2.8
			c0.7-0.7,1.4-1.1,2.4-1.1c0.4,0,0.8,0.1,1.2,0.2l0.2-1.6c-0.4-0.1-0.9-0.1-1.4-0.1C919.9,509.8,919.2,510,918.6,510.4z"/>
		<path class="st24" d="M825.5,508.1c0.3,0,0.5-0.1,0.7-0.3c0.2-0.2,0.3-0.5,0.3-0.9c0-0.4-0.1-0.7-0.3-0.9
			c-0.2-0.2-0.4-0.3-0.7-0.3c-0.3,0-0.5,0.1-0.7,0.3c-0.2,0.2-0.3,0.5-0.3,0.9c0,0.4,0.1,0.7,0.3,0.9S825.2,508.1,825.5,508.1z"/>
		<path class="st24" d="M628.9,538.8c-0.8,0-1.5,0.2-2.1,0.5c-0.6,0.3-1.1,0.7-1.5,1.3h-0.1l-0.3-1.6h-1.4v11.4h1.7v-6
			c0-1.5,0.3-2.5,0.8-3.2c0.6-0.6,1.4-1,2.6-1c0.9,0,1.6,0.2,2,0.7c0.4,0.5,0.6,1.1,0.6,2.1v7.4h1.7V543c0-1.5-0.3-2.5-1-3.2
			C631.3,539.1,630.2,538.8,628.9,538.8z"/>
		<path class="st24" d="M628.5,521.6c0.8,0,1.4-0.1,2-0.2c0.5-0.1,1.1-0.3,1.7-0.6v-1.5c-1.2,0.5-2.4,0.8-3.6,0.8
			c-1.2,0-2.1-0.3-2.7-1c-0.6-0.7-1-1.7-1-3h7.9v-1.1c0-1.5-0.4-2.8-1.2-3.7c-0.8-0.9-2-1.4-3.4-1.4c-1.5,0-2.7,0.5-3.6,1.6
			c-0.9,1.1-1.4,2.5-1.4,4.4c0,1.8,0.5,3.3,1.5,4.3C625.5,521.1,626.8,521.6,628.5,521.6z M625.8,512.1c0.5-0.6,1.3-0.9,2.2-0.9
			c0.9,0,1.6,0.3,2.1,0.9c0.5,0.6,0.7,1.4,0.7,2.5h-6C625,513.6,625.3,512.7,625.8,512.1z"/>
		<path class="st24" d="M626.8,490.7c-0.5,0.3-1.2,0.4-2.1,0.4c-0.6,0-1.2-0.1-1.8-0.2c-0.6-0.2-1.2-0.4-1.8-0.7v1.6
			c0.8,0.5,2,0.7,3.5,0.7c1.4,0,2.5-0.3,3.3-0.9c0.8-0.6,1.2-1.4,1.2-2.5c0-0.8-0.2-1.4-0.7-1.9c-0.5-0.5-1.4-1-2.7-1.5
			c-1-0.4-1.6-0.6-2-0.8c-0.3-0.2-0.6-0.4-0.8-0.6c-0.2-0.2-0.2-0.5-0.2-0.8c0-0.5,0.2-0.8,0.6-1.1c0.4-0.3,1-0.4,1.9-0.4
			c0.9,0,2,0.2,3.1,0.7l0.6-1.4c-1.2-0.5-2.4-0.7-3.6-0.7c-1.3,0-2.4,0.3-3.1,0.8c-0.8,0.5-1.1,1.3-1.1,2.2c0,0.5,0.1,1,0.3,1.3
			c0.2,0.4,0.5,0.7,1,1c0.4,0.3,1.2,0.6,2.3,1c1.1,0.4,1.9,0.8,2.3,1.1c0.4,0.3,0.6,0.7,0.6,1.1C627.5,490,627.3,490.4,626.8,490.7z
			"/>
		<rect x="632" y="481" class="st24" width="1.7" height="11.4"/>
		<path class="st24" d="M641.1,491.2c-0.6,0-1-0.2-1.3-0.5c-0.3-0.4-0.5-0.9-0.5-1.6v-6.7h3.3V481h-3.3v-2.6h-1l-0.7,2.4l-1.6,0.7
			v0.8h1.6v6.8c0,2.3,1.1,3.5,3.3,3.5c0.3,0,0.6,0,1-0.1c0.4-0.1,0.6-0.1,0.8-0.2V491c-0.2,0-0.4,0.1-0.7,0.1
			C641.7,491.1,641.4,491.2,641.1,491.2z"/>
		<path class="st24" d="M632.9,476.7c-0.3,0-0.5,0.1-0.7,0.3c-0.2,0.2-0.3,0.5-0.3,0.9c0,0.4,0.1,0.7,0.3,0.9
			c0.2,0.2,0.4,0.3,0.7,0.3c0.3,0,0.5-0.1,0.7-0.3c0.2-0.2,0.3-0.5,0.3-0.9c0-0.4-0.1-0.7-0.3-0.9
			C633.4,476.8,633.1,476.7,632.9,476.7z"/>
		<path class="st24" d="M615.9,509.8c-0.8,0-1.4,0.1-2,0.4c-0.6,0.3-1.1,0.7-1.6,1.4h-0.1L612,510h-1.4v16.5h1.7v-4.7
			c0-0.6,0-1.2-0.1-1.9h0.1c0.4,0.6,0.9,1,1.5,1.3c0.6,0.3,1.3,0.4,2,0.4c1.5,0,2.6-0.5,3.5-1.6c0.8-1,1.3-2.5,1.3-4.4
			c0-1.9-0.4-3.3-1.2-4.3C618.6,510.3,617.4,509.8,615.9,509.8z M618,519c-0.6,0.8-1.3,1.2-2.3,1.2c-1.2,0-2-0.3-2.6-1
			c-0.5-0.7-0.8-1.8-0.8-3.4v-0.4c0-1.4,0.3-2.4,0.8-3.1c0.5-0.6,1.4-1,2.5-1c1,0,1.8,0.4,2.4,1.1c0.6,0.8,0.8,1.9,0.8,3.3
			C618.9,517.1,618.6,518.2,618,519z"/>
		<path class="st24" d="M638.8,510.4c-0.6,0.4-1.1,1-1.5,1.7h-0.1L637,510h-1.4v11.4h1.7v-6.1c0-1.1,0.3-2.1,1-2.8
			c0.7-0.7,1.4-1.1,2.4-1.1c0.4,0,0.8,0.1,1.2,0.2l0.2-1.6c-0.4-0.1-0.9-0.1-1.4-0.1C640.1,509.8,639.4,510,638.8,510.4z"/>
		<path class="st24" d="M636.5,548c-0.1,0.6-0.2,1.5-0.5,2.5c-0.2,1.1-0.4,2-0.6,2.7h1.3c0.4-0.8,0.7-1.6,1.1-2.6
			c0.3-0.9,0.6-1.7,0.8-2.4l-0.2-0.2H636.5z"/>
		<path class="st24" d="M651.7,538.8c-1.5,0-2.7,0.5-3.6,1.6c-0.9,1.1-1.4,2.5-1.4,4.4c0,1.8,0.5,3.3,1.5,4.3c1,1,2.3,1.5,4,1.5
			c0.8,0,1.4-0.1,2-0.2c0.5-0.1,1.1-0.3,1.7-0.6v-1.5c-1.2,0.5-2.4,0.8-3.6,0.8c-1.2,0-2.1-0.3-2.7-1c-0.6-0.7-1-1.7-1-3.1h7.9v-1.1
			c0-1.5-0.4-2.8-1.2-3.7C654.3,539.3,653.1,538.8,651.7,538.8z M648.5,543.6c0.1-1.1,0.4-1.9,1-2.5c0.5-0.6,1.3-0.9,2.2-0.9
			c0.9,0,1.6,0.3,2.1,0.9c0.5,0.6,0.7,1.4,0.7,2.5H648.5z"/>
		<rect x="599.6" y="539" class="st24" width="1.7" height="11.4"/>
		<path class="st24" d="M603.6,515.3c0-1.1,0.3-2.1,1-2.8c0.7-0.7,1.4-1.1,2.4-1.1c0.4,0,0.8,0.1,1.2,0.2l0.2-1.6
			c-0.4-0.1-0.9-0.1-1.4-0.1c-0.7,0-1.4,0.2-2,0.6c-0.6,0.4-1.1,1-1.5,1.7h-0.1l-0.2-2.1h-1.4v11.4h1.7V515.3z"/>
		<path class="st24" d="M775.2,540.6L775.2,540.6c-0.9-1.2-2.1-1.8-3.7-1.8c-1.5,0-2.6,0.5-3.5,1.6c-0.8,1-1.2,2.5-1.2,4.4
			c0,1.9,0.4,3.3,1.2,4.3c0.8,1,2,1.6,3.4,1.6c1.6,0,2.8-0.6,3.6-1.7h0.1c-0.1,0.5-0.1,1.1-0.1,1.8v4.9h1.7V539h-1.4L775.2,540.6z
			 M775.1,545.1c0,1.5-0.3,2.5-0.8,3.1c-0.5,0.6-1.4,0.9-2.5,0.9c-1,0-1.8-0.4-2.4-1.1c-0.5-0.8-0.8-1.8-0.8-3.3
			c0-1.4,0.3-2.6,0.8-3.3c0.5-0.8,1.3-1.2,2.3-1.2c1.2,0,2,0.4,2.6,1.1c0.5,0.7,0.8,1.8,0.8,3.4V545.1z"/>
		<path class="st24" d="M604.6,486.7c0-1.8-0.5-3.2-1.4-4.3c-0.9-1.1-2.2-1.6-3.8-1.6c-1.6,0-2.9,0.5-3.9,1.6
			c-0.9,1-1.4,2.5-1.4,4.3c0,1.2,0.2,2.2,0.6,3.1c0.4,0.9,1,1.6,1.8,2.1c0.8,0.5,1.7,0.7,2.7,0.7c1.6,0,2.9-0.5,3.9-1.6
			C604.1,490,604.6,488.5,604.6,486.7z M601.9,490c-0.6,0.8-1.4,1.1-2.6,1.1c-1.1,0-2-0.4-2.6-1.1c-0.6-0.8-0.9-1.9-0.9-3.3
			c0-1.5,0.3-2.6,0.9-3.3c0.6-0.7,1.4-1.1,2.6-1.1c1.1,0,2,0.4,2.6,1.1c0.6,0.8,0.9,1.9,0.9,3.3C602.8,488.1,602.5,489.2,601.9,490z
			"/>
		<rect x="618.1" y="539" class="st24" width="1.7" height="11.4"/>
		<path class="st24" d="M619,534.8c-0.3,0-0.5,0.1-0.7,0.3c-0.2,0.2-0.3,0.5-0.3,0.9c0,0.4,0.1,0.7,0.3,0.9c0.2,0.2,0.4,0.3,0.7,0.3
			c0.3,0,0.5-0.1,0.7-0.3c0.2-0.2,0.3-0.5,0.3-0.9c0-0.4-0.1-0.7-0.3-0.9C619.5,534.9,619.2,534.8,619,534.8z"/>
		<path class="st24" d="M613.9,482.5l0.2-1.6c-0.4-0.1-0.9-0.1-1.4-0.1c-0.7,0-1.4,0.2-2,0.6c-0.6,0.4-1.1,1-1.5,1.7h-0.1L609,481
			h-1.4v11.4h1.7v-6.1c0-1.1,0.3-2,1-2.8c0.7-0.7,1.4-1.1,2.4-1.1C613,482.3,613.4,482.4,613.9,482.5z"/>
		<path class="st24" d="M608.7,549.2c-0.6,0-1-0.2-1.3-0.5c-0.3-0.4-0.5-0.9-0.5-1.6v-6.7h3.3V539h-3.3v-2.6h-1l-0.7,2.4l-1.6,0.7
			v0.8h1.6v6.8c0,2.3,1.1,3.5,3.3,3.5c0.3,0,0.6,0,1-0.1c0.4-0.1,0.6-0.1,0.8-0.2V549c-0.2,0-0.4,0.1-0.7,0.1
			C609.3,549.2,609,549.2,608.7,549.2z"/>
		<path class="st24" d="M600.5,534.8c-0.3,0-0.5,0.1-0.7,0.3c-0.2,0.2-0.3,0.5-0.3,0.9c0,0.4,0.1,0.7,0.3,0.9
			c0.2,0.2,0.4,0.3,0.7,0.3c0.3,0,0.5-0.1,0.7-0.3c0.2-0.2,0.3-0.5,0.3-0.9c0-0.4-0.1-0.7-0.3-0.9
			C601,534.9,600.8,534.8,600.5,534.8z"/>
		<path class="st24" d="M654.2,509.8c-1.5,0-2.7,0.5-3.6,1.6c-0.9,1.1-1.4,2.5-1.4,4.4c0,1.8,0.5,3.3,1.5,4.3c1,1,2.3,1.5,4,1.5
			c0.8,0,1.4-0.1,2-0.2c0.5-0.1,1.1-0.3,1.7-0.6v-1.5c-1.2,0.5-2.4,0.8-3.6,0.8c-1.2,0-2.1-0.3-2.7-1c-0.6-0.7-1-1.7-1-3h7.9v-1.1
			c0-1.5-0.4-2.8-1.3-3.7C656.8,510.3,655.6,509.8,654.2,509.8z M651,514.6c0.1-1.1,0.4-1.9,1-2.5c0.5-0.6,1.3-0.9,2.2-0.9
			c0.9,0,1.6,0.3,2.1,0.9c0.5,0.6,0.7,1.4,0.7,2.5H651z"/>
		<path class="st24" d="M745.5,521.2c0.6-0.3,1.1-0.7,1.7-1.5h0.1l0.3,1.6h1.3v-7.8c0-1.3-0.3-2.3-1-2.9c-0.7-0.6-1.7-0.9-3-0.9
			c-0.7,0-1.3,0.1-2,0.3c-0.7,0.2-1.3,0.4-1.8,0.7l0.5,1.3c1.2-0.6,2.3-0.9,3.2-0.9c0.8,0,1.5,0.2,1.8,0.6c0.4,0.4,0.6,1.1,0.6,2
			v0.7l-1.9,0.1c-3.7,0.1-5.5,1.3-5.5,3.6c0,1.1,0.3,1.9,1,2.5c0.6,0.6,1.5,0.9,2.7,0.9C744.2,521.6,744.9,521.5,745.5,521.2z
			 M741.5,518.3c0-0.8,0.3-1.4,0.9-1.8c0.6-0.4,1.6-0.6,3-0.6l1.7-0.1v1c0,1.1-0.3,1.9-0.9,2.5c-0.6,0.6-1.5,0.9-2.5,0.9
			c-0.7,0-1.2-0.2-1.6-0.5C741.7,519.4,741.5,518.9,741.5,518.3z"/>
		<path class="st24" d="M736.7,545c0,1.5-0.3,2.5-0.8,3.2c-0.6,0.7-1.4,1-2.6,1c-0.9,0-1.6-0.2-2-0.7c-0.4-0.5-0.6-1.2-0.6-2.1V539
			h-1.8v7.5c0,1.4,0.3,2.5,1,3.2c0.7,0.7,1.7,1,3.1,1c0.8,0,1.5-0.1,2.1-0.4c0.6-0.3,1.1-0.7,1.5-1.3h0.1l0.2,1.5h1.4V539h-1.7V545z
			"/>
		<path class="st24" d="M725.2,549.2c-0.6,0-1-0.2-1.3-0.5c-0.3-0.4-0.5-0.9-0.5-1.6v-6.7h3.3V539h-3.3v-2.6h-1l-0.7,2.4l-1.6,0.7
			v0.8h1.6v6.8c0,2.3,1.1,3.5,3.3,3.5c0.3,0,0.6,0,1-0.1c0.4-0.1,0.6-0.1,0.8-0.2V549c-0.2,0-0.4,0.1-0.7,0.1
			C725.8,549.2,725.5,549.2,725.2,549.2z"/>
		<path class="st24" d="M732.3,486.7c0-1.8-0.5-3.2-1.4-4.3c-0.9-1.1-2.2-1.6-3.8-1.6c-1.6,0-2.9,0.5-3.9,1.6
			c-0.9,1-1.4,2.5-1.4,4.3c0,1.2,0.2,2.2,0.6,3.1c0.4,0.9,1,1.6,1.8,2.1c0.8,0.5,1.7,0.7,2.7,0.7c1.6,0,2.9-0.5,3.9-1.6
			C731.9,490,732.3,488.5,732.3,486.7z M729.7,490c-0.6,0.8-1.4,1.1-2.6,1.1c-1.1,0-2-0.4-2.6-1.1c-0.6-0.8-0.9-1.9-0.9-3.3
			c0-1.5,0.3-2.6,0.9-3.3c0.6-0.7,1.4-1.1,2.6-1.1c1.1,0,2,0.4,2.6,1.1c0.6,0.8,0.9,1.9,0.9,3.3C730.6,488.1,730.3,489.2,729.7,490z
			"/>
		<path class="st24" d="M754.5,538.8c-0.8,0-1.6,0.2-2.2,0.5c-0.6,0.4-1.1,0.8-1.5,1.4h-0.1c-0.5-1.3-1.7-1.9-3.5-1.9
			c-0.7,0-1.4,0.2-2,0.5c-0.6,0.3-1.1,0.7-1.4,1.3h-0.1l-0.3-1.6h-1.4v11.4h1.7v-6c0-1.5,0.3-2.5,0.8-3.2c0.5-0.6,1.3-1,2.4-1
			c0.8,0,1.4,0.2,1.8,0.7c0.4,0.5,0.6,1.1,0.6,2v7.4h1.7v-6.4c0-1.3,0.3-2.2,0.8-2.8c0.5-0.6,1.3-0.9,2.4-0.9c0.8,0,1.4,0.2,1.8,0.7
			c0.4,0.5,0.6,1.1,0.6,2v7.4h1.7V543c0-1.5-0.3-2.5-1-3.2C756.7,539.1,755.8,538.8,754.5,538.8z"/>
		<path class="st24" d="M767.1,490.3c-1.2,0.5-2.4,0.8-3.6,0.8c-1.2,0-2.1-0.3-2.7-1c-0.6-0.7-1-1.7-1-3.1h7.9v-1.1
			c0-1.5-0.4-2.8-1.3-3.7c-0.8-0.9-2-1.4-3.4-1.4c-1.5,0-2.7,0.5-3.7,1.6c-0.9,1.1-1.4,2.5-1.4,4.4c0,1.8,0.5,3.3,1.5,4.3
			c1,1,2.3,1.5,4,1.5c0.8,0,1.4-0.1,2-0.2c0.5-0.1,1.1-0.3,1.7-0.6V490.3z M760.8,483.1c0.5-0.6,1.3-0.9,2.2-0.9
			c0.9,0,1.6,0.3,2.1,0.9c0.5,0.6,0.7,1.4,0.7,2.5h-6C759.9,484.5,760.2,483.7,760.8,483.1z"/>
		<path class="st24" d="M761.9,514.9c-1-0.4-1.7-0.7-2-0.8c-0.3-0.2-0.6-0.4-0.8-0.6c-0.2-0.2-0.2-0.5-0.2-0.8
			c0-0.5,0.2-0.8,0.6-1.1c0.4-0.3,1-0.4,1.9-0.4c0.9,0,2,0.2,3.1,0.7l0.6-1.4c-1.2-0.5-2.4-0.8-3.6-0.8c-1.3,0-2.4,0.3-3.1,0.8
			c-0.8,0.5-1.1,1.3-1.1,2.2c0,0.5,0.1,1,0.3,1.3c0.2,0.4,0.5,0.7,1,1c0.4,0.3,1.2,0.6,2.3,1c1.1,0.4,1.9,0.8,2.3,1.1
			c0.4,0.3,0.6,0.7,0.6,1.1c0,0.6-0.2,1-0.7,1.3c-0.5,0.3-1.2,0.4-2.1,0.4c-0.6,0-1.2-0.1-1.8-0.2c-0.6-0.2-1.2-0.4-1.8-0.7v1.6
			c0.8,0.5,2,0.7,3.5,0.7c1.4,0,2.5-0.3,3.3-0.9c0.8-0.6,1.2-1.4,1.2-2.5c0-0.8-0.2-1.4-0.7-1.9
			C764.1,515.9,763.2,515.4,761.9,514.9z"/>
		<rect x="729.8" y="505.2" class="st24" width="1.7" height="16.2"/>
		<path class="st24" d="M669,538.8c-1.5,0-2.7,0.5-3.6,1.6c-0.9,1.1-1.4,2.5-1.4,4.4c0,1.8,0.5,3.3,1.5,4.3c1,1,2.3,1.5,4,1.5
			c0.8,0,1.4-0.1,2-0.2c0.5-0.1,1.1-0.3,1.7-0.6v-1.5c-1.2,0.5-2.4,0.8-3.6,0.8c-1.2,0-2.1-0.3-2.7-1c-0.6-0.7-1-1.7-1-3.1h7.9v-1.1
			c0-1.5-0.4-2.8-1.3-3.7C671.6,539.3,670.5,538.8,669,538.8z M665.9,543.6c0.1-1.1,0.4-1.9,1-2.5c0.5-0.6,1.3-0.9,2.2-0.9
			c0.9,0,1.6,0.3,2.1,0.9c0.5,0.6,0.7,1.4,0.7,2.5H665.9z"/>
		<path class="st24" d="M676.7,519.8l0.3,1.6h1.3v-7.8c0-1.3-0.3-2.3-1-2.9c-0.7-0.6-1.7-0.9-3-0.9c-0.7,0-1.3,0.1-2,0.3
			c-0.7,0.2-1.3,0.4-1.8,0.7l0.5,1.3c1.2-0.6,2.3-0.9,3.2-0.9c0.8,0,1.5,0.2,1.8,0.6c0.4,0.4,0.6,1.1,0.6,2v0.7l-1.9,0.1
			c-3.7,0.1-5.5,1.3-5.5,3.6c0,1.1,0.3,1.9,1,2.5c0.6,0.6,1.5,0.9,2.7,0.9c0.8,0,1.5-0.1,2.1-0.4C675.5,521,676.1,520.5,676.7,519.8
			L676.7,519.8z M676.6,516.8c0,1.1-0.3,1.9-0.9,2.5c-0.6,0.6-1.5,0.9-2.5,0.9c-0.7,0-1.2-0.2-1.6-0.5c-0.4-0.3-0.6-0.8-0.6-1.4
			c0-0.8,0.3-1.4,0.9-1.8c0.6-0.4,1.6-0.6,3-0.6l1.7-0.1V516.8z"/>
		<path class="st24" d="M666.9,511.4c0.4,0,0.8,0.1,1.2,0.2l0.2-1.6c-0.4-0.1-0.9-0.1-1.4-0.1c-0.7,0-1.4,0.2-2,0.6
			c-0.6,0.4-1.1,1-1.5,1.7h-0.1l-0.2-2.1h-1.4v11.4h1.7v-6.1c0-1.1,0.3-2.1,1-2.8C665.2,511.7,666,511.4,666.9,511.4z"/>
		<rect x="659.3" y="534.2" class="st24" width="1.7" height="16.2"/>
		<path class="st24" d="M698.5,492.5c0.4-0.1,0.6-0.1,0.8-0.2V491c-0.2,0-0.4,0.1-0.7,0.1c-0.3,0-0.6,0.1-0.9,0.1
			c-0.6,0-1-0.2-1.3-0.5c-0.3-0.4-0.5-0.9-0.5-1.6v-6.7h3.3V481h-3.3v-2.6h-1l-0.7,2.4l-1.6,0.7v0.8h1.6v6.8c0,2.3,1.1,3.5,3.3,3.5
			C697.8,492.6,698.1,492.6,698.5,492.5z"/>
		<path class="st24" d="M700.8,538.8c-1.5,0-2.7,0.5-3.6,1.6c-0.9,1.1-1.4,2.5-1.4,4.4c0,1.8,0.5,3.3,1.5,4.3c1,1,2.3,1.5,4,1.5
			c0.8,0,1.4-0.1,2-0.2c0.5-0.1,1.1-0.3,1.7-0.6v-1.5c-1.2,0.5-2.4,0.8-3.6,0.8c-1.2,0-2.1-0.3-2.7-1c-0.6-0.7-1-1.7-1-3.1h7.9v-1.1
			c0-1.5-0.4-2.8-1.3-3.7C703.4,539.3,702.2,538.8,700.8,538.8z M697.6,543.6c0.1-1.1,0.4-1.9,1-2.5c0.5-0.6,1.3-0.9,2.2-0.9
			c0.9,0,1.6,0.3,2.1,0.9c0.5,0.6,0.7,1.4,0.7,2.5H697.6z"/>
		<path class="st24" d="M713.8,538.8c-0.8,0-1.5,0.2-2.1,0.5c-0.6,0.3-1.1,0.7-1.5,1.3h-0.1l-0.3-1.6h-1.4v11.4h1.7v-6
			c0-1.5,0.3-2.5,0.8-3.2c0.6-0.6,1.4-1,2.6-1c0.9,0,1.6,0.2,2,0.7c0.4,0.5,0.6,1.1,0.6,2.1v7.4h1.7V543c0-1.5-0.3-2.5-1-3.2
			C716.2,539.1,715.2,538.8,713.8,538.8z"/>
		<path class="st24" d="M689,538.8c-0.8,0-1.6,0.2-2.2,0.5c-0.6,0.4-1.1,0.8-1.5,1.4h-0.1c-0.5-1.3-1.7-1.9-3.5-1.9
			c-0.7,0-1.4,0.2-2,0.5c-0.6,0.3-1.1,0.7-1.4,1.3h-0.1L678,539h-1.4v11.4h1.7v-6c0-1.5,0.3-2.5,0.8-3.2c0.5-0.6,1.3-1,2.4-1
			c0.8,0,1.4,0.2,1.8,0.7c0.4,0.5,0.6,1.1,0.6,2v7.4h1.7v-6.4c0-1.3,0.3-2.2,0.8-2.8c0.5-0.6,1.3-0.9,2.4-0.9c0.8,0,1.4,0.2,1.8,0.7
			c0.4,0.5,0.6,1.1,0.6,2v7.4h1.7V543c0-1.5-0.3-2.5-1-3.2C691.3,539.1,690.3,538.8,689,538.8z"/>
		<polygon class="st24" points="865,444.9 852.5,425.2 841.8,425.2 841.8,459.6 850,459.6 850,436 864.6,459.6 873.2,459.6 
			873.2,425.2 865,425.2 		"/>
		<polygon class="st24" points="625.9,449.4 617.5,425.2 608.2,425.2 620.8,459.6 630.7,459.6 643.3,425.2 634.2,425.2 		"/>
		<path class="st24" d="M587.5,424.5c-5.5,0-9.9,1.6-13,4.8c-3.2,3.2-4.7,7.6-4.7,13.1c0,5.5,1.6,9.9,4.7,13.1
			c3.2,3.2,7.5,4.9,13,4.9c5.6,0,9.9-1.6,13.1-4.9c3.2-3.2,4.7-7.6,4.7-13.1c0-5.5-1.6-9.9-4.7-13.1
			C597.3,426.1,593,424.5,587.5,424.5z M595.4,447.4c-0.4,1.4-1.1,2.7-1.9,3.7c-0.8,0.9-1.7,1.6-2.7,2c-1,0.4-2.1,0.7-3.3,0.7
			c-1.1,0-2.2-0.2-3.3-0.6c-1-0.4-1.9-1.1-2.7-2c-0.8-0.9-1.4-2.1-1.9-3.5c-0.5-1.4-0.7-3.2-0.7-5.2c0-2,0.2-3.8,0.7-5.3
			c0.5-1.5,1.1-2.7,1.9-3.6c0.8-0.9,1.7-1.6,2.7-2c1-0.4,2.1-0.6,3.2-0.6c1.1,0,2.2,0.2,3.2,0.6c1,0.4,1.9,1.1,2.7,2
			c0.8,0.9,1.4,2.1,1.9,3.5c0.5,1.5,0.7,3.2,0.7,5.3C596,444.3,595.8,446,595.4,447.4z"/>
		<path class="st24" d="M813.9,425.2l-12.7,34.5h9l2.4-7h12.7l2.4,7h9.2l-12.7-34.5H813.9z M814.7,446.4l4.2-12.3l4.2,12.3H814.7z"
			/>
		<polygon class="st24" points="544.9,442.5 537.2,425.2 526.8,425.2 526.8,459.6 535.2,459.6 535.2,436.5 541.6,451.5 547.7,451.5 
			554,436.5 554,459.6 562.9,459.6 562.9,425.2 552.6,425.2 		"/>
		<polygon class="st24" points="646.7,431.3 652.3,431.3 652.3,453.5 646.7,453.5 646.7,459.6 666.9,459.6 666.9,453.5 661.2,453.5 
			661.2,431.3 666.9,431.3 666.9,425.2 646.7,425.2 		"/>
		<polygon class="st24" points="782.7,449.4 774.4,425.2 765,425.2 777.6,459.6 787.5,459.6 800.1,425.2 791,425.2 		"/>
		<path class="st24" d="M728.8,447.1h6.9v6.8c-0.3,0-0.7,0.1-1.1,0.1c-0.4,0-0.8,0-1.1,0c-4,0-7-1-9-3c-2-2-3-4.9-3-8.8
			c0-1.9,0.3-3.5,0.8-4.9c0.6-1.4,1.3-2.6,2.3-3.5c1-1,2.2-1.7,3.4-2.1c1.3-0.5,2.7-0.7,4.3-0.7c1.3,0,2.6,0.2,3.8,0.5
			c1.2,0.4,2.2,0.8,3.1,1.3c0.8,0.4,1.6,0.9,2.4,1.5c0.8,0.6,1.5,1,1.9,1.4h1v-8.1c-2.5-1.2-4.8-2-6.9-2.4c-2.1-0.4-4.2-0.6-6.5-0.6
			c-6,0-10.7,1.6-14,4.9c-3.3,3.3-5,7.6-5,13c0,5.6,1.7,10,5,13.2c3.3,3.2,7.9,4.8,13.8,4.8c2.5,0,5.1-0.3,7.6-0.9
			c2.6-0.6,4.6-1.2,6.1-1.8v-17h-15.9V447.1z"/>
		<polygon class="st24" points="697.3,444.9 684.7,425.2 674.1,425.2 674.1,459.6 682.3,459.6 682.3,436 696.9,459.6 705.4,459.6 
			705.4,425.2 697.3,425.2 		"/>
	</g>
</g>
</svg>
